<svg width="306" height="306" viewBox="0 0 306 306" fill="none" xmlns="http://www.w3.org/2000/svg">
<circle cx="153.273" cy="142.892" r="95.8982" fill="#3E4450"/>
<circle cx="63.3857" cy="78.1397" r="6.01071" fill="#3E4450"/>
<circle cx="186.605" cy="35.7915" r="11.2018" fill="#3E4450"/>
<circle cx="72.4024" cy="219.392" r="10.6554" fill="#3E4450"/>
<circle cx="256.002" cy="194.256" r="10.6554" fill="#3E4450"/>
<circle cx="235.238" cy="206.277" r="5.19107" fill="#3E4450"/>
<path d="M158.752 51.6581C158.435 51.5908 158.435 51.1386 158.752 51.0713L163.542 50.0527C163.657 50.0282 163.748 49.9382 163.773 49.8228L164.804 45.0668C164.872 44.7515 165.322 44.7515 165.39 45.0668L166.422 49.8228C166.447 49.9382 166.537 50.0282 166.652 50.0527L171.442 51.0713C171.759 51.1386 171.759 51.5908 171.442 51.6581L166.652 52.6767C166.537 52.7013 166.447 52.7912 166.422 52.9066L165.39 57.6626C165.322 57.9779 164.872 57.9779 164.804 57.6626L163.773 52.9066C163.748 52.7912 163.657 52.7013 163.542 52.6767L158.752 51.6581Z" fill="#949BAB"/>
<path d="M49.3005 149.515C49.4228 148.938 50.2474 148.938 50.3697 149.515L52.1963 158.145C52.2408 158.355 52.4045 158.52 52.6146 158.566L61.155 160.426C61.7285 160.551 61.7285 161.369 61.155 161.494L52.6146 163.354C52.4045 163.4 52.2408 163.565 52.1963 163.775L50.3697 172.405C50.2474 172.982 49.4228 172.982 49.3005 172.405L47.4739 163.775C47.4294 163.565 47.2657 163.4 47.0557 163.354L38.5153 161.494C37.9418 161.369 37.9418 160.551 38.5153 160.426L47.0557 158.566C47.2657 158.52 47.4294 158.355 47.4739 158.145L49.3005 149.515Z" fill="#949BAB"/>
<path d="M238.978 80.6653C239.1 80.0876 239.925 80.0876 240.047 80.6653L241.113 85.6995C241.157 85.9099 241.321 86.0745 241.531 86.1203L246.528 87.2088C247.101 87.3337 247.101 88.1517 246.528 88.2766L241.531 89.3651C241.321 89.4108 241.157 89.5755 241.113 89.7858L240.047 94.8201C239.925 95.3978 239.1 95.3978 238.978 94.8201L237.912 89.7858C237.868 89.5755 237.704 89.4108 237.494 89.3651L232.498 88.2766C231.924 88.1517 231.924 87.3337 232.498 87.2088L237.494 86.1203C237.704 86.0745 237.868 85.9099 237.912 85.6995L238.978 80.6653Z" fill="#949BAB"/>
<path d="M261.007 161.378L262.68 169.283L270.473 170.981L262.68 172.678L261.007 180.584L259.333 172.678L251.541 170.981L259.333 169.283L261.007 161.378Z" fill="#3E4450"/>
<path d="M207.23 99L78 148.452L105.595 225.225L122.261 232.602L143.025 236.973L164.063 236.154L176.357 233.968L187.286 230.689L205.318 221.4L220.618 209.379L221.799 207.852C228.467 199.232 234.379 190.053 239.47 180.418L207.23 99Z" fill="#3E4450"/>
<path d="M88.2486 127.044L74.5879 119.394L193.163 74.587L186.879 90.1603L191.524 104.641L93.4397 142.071L88.2486 127.044Z" fill="#6D7381"/>
<path d="M105.461 225.401V225.401C117.418 231.515 130.363 235.463 143.696 237.063L144.029 237.103L153.535 237.103C160.656 237.103 167.757 236.345 174.717 234.842L177.074 234.333C184.516 232.727 191.701 230.103 198.427 226.536V226.536C203.675 223.753 208.609 220.414 213.144 216.577L214.615 215.332C218.551 212.002 222.203 208.35 225.533 204.414V204.414C230.195 198.904 234.2 192.869 237.466 186.432L240.429 180.594" stroke="#949BAB" stroke-width="2"/>
<path d="M77.3643 147.762L106.007 225.93" stroke="#949BAB" stroke-width="2"/>
<path d="M208.78 99.4026L240.203 181.508" stroke="#949BAB" stroke-width="2"/>
<path d="M72.4471 119.621L194.844 73.6288" stroke="#949BAB" stroke-width="2"/>
<path d="M76.7317 149.17L207.059 98.9095L187.846 89.9868C187.295 89.7306 187.058 89.0732 187.321 88.5244L194.012 74.5239" stroke="#949BAB" stroke-width="2"/>
<path d="M73.5447 119.243L87.3214 126.63C87.8451 126.911 88.0485 127.558 87.7793 128.088L77.3644 148.582" stroke="#949BAB" stroke-width="2"/>
<path d="M72.9932 118.254L81.8702 140.444" stroke="#949BAB" stroke-width="2"/>
<path d="M87.9756 127.864L93.4399 143.164" stroke="#949BAB" stroke-width="2"/>
<path d="M187.425 89.6138L192.889 105.46" stroke="#949BAB" stroke-width="2"/>
<path d="M194.107 74.7796L201.95 96.3974" stroke="#949BAB" stroke-width="2"/>
<circle cx="128.684" cy="141.798" r="5.7375" fill="#6D7381"/>
<circle cx="120.488" cy="112.291" r="4.09821" fill="#3E4450"/>
<circle cx="164.748" cy="128.137" r="5.7375" fill="#6D7381"/>
<circle cx="145.624" cy="103.001" r="4.09821" fill="#3E4450"/>
</svg>
