<svg width="233" height="215" viewBox="0 0 233 215" fill="none" xmlns="http://www.w3.org/2000/svg">
<g clip-path="url(#clip0_2_2)">
<path d="M115.273 214.79C168.236 214.79 211.171 171.855 211.171 118.892C211.171 65.9289 168.236 22.9938 115.273 22.9938C62.3099 22.9938 19.3748 65.9289 19.3748 118.892C19.3748 171.855 62.3099 214.79 115.273 214.79Z" fill="#3E4450"/>
<path d="M25.3857 60.1504C28.7053 60.1504 31.3964 57.4593 31.3964 54.1397C31.3964 50.8201 28.7053 48.129 25.3857 48.129C22.0661 48.129 19.375 50.8201 19.375 54.1397C19.375 57.4593 22.0661 60.1504 25.3857 60.1504Z" fill="#3E4450"/>
<path d="M148.605 22.9933C154.792 22.9933 159.807 17.9781 159.807 11.7915C159.807 5.60492 154.792 0.589706 148.605 0.589706C142.418 0.589706 137.403 5.60492 137.403 11.7915C137.403 17.9781 142.418 22.9933 148.605 22.9933Z" fill="#3E4450"/>
<path d="M34.4024 206.047C40.2872 206.047 45.0578 201.277 45.0578 195.392C45.0578 189.507 40.2872 184.737 34.4024 184.737C28.5176 184.737 23.747 189.507 23.747 195.392C23.747 201.277 28.5176 206.047 34.4024 206.047Z" fill="#3E4450"/>
<path d="M218.002 180.911C223.887 180.911 228.657 176.141 228.657 170.256C228.657 164.371 223.887 159.601 218.002 159.601C212.117 159.601 207.347 164.371 207.347 170.256C207.347 176.141 212.117 180.911 218.002 180.911Z" fill="#3E4450"/>
<path d="M197.238 187.468C200.105 187.468 202.429 185.144 202.429 182.277C202.429 179.41 200.105 177.086 197.238 177.086C194.371 177.086 192.047 179.41 192.047 182.277C192.047 185.144 194.371 187.468 197.238 187.468Z" fill="#3E4450"/>
<path d="M120.752 27.6581C120.435 27.5908 120.435 27.1386 120.752 27.0713L125.542 26.0527C125.657 26.0282 125.748 25.9382 125.773 25.8228L126.804 21.0668C126.872 20.7515 127.322 20.7515 127.39 21.0668L128.422 25.8228C128.447 25.9382 128.537 26.0282 128.652 26.0527L133.442 27.0713C133.759 27.1386 133.759 27.5908 133.442 27.6581L128.652 28.6767C128.537 28.7013 128.447 28.7912 128.422 28.9066L127.39 33.6626C127.322 33.9779 126.872 33.9779 126.804 33.6626L125.773 28.9066C125.748 28.7912 125.657 28.7013 125.542 28.6767L120.752 27.6581Z" fill="#949BAB"/>
<path d="M11.3005 125.515C11.4228 124.938 12.2474 124.938 12.3697 125.515L14.1963 134.145C14.2408 134.355 14.4045 134.52 14.6146 134.566L23.155 136.426C23.7285 136.551 23.7285 137.369 23.155 137.494L14.6146 139.354C14.4045 139.4 14.2408 139.565 14.1963 139.775L12.3697 148.405C12.2474 148.982 11.4228 148.982 11.3005 148.405L9.4739 139.775C9.4294 139.565 9.2657 139.4 9.0557 139.354L0.5153 137.494C-0.0582004 137.369 -0.0582004 136.551 0.5153 136.426L9.0557 134.566C9.2657 134.52 9.4294 134.355 9.4739 134.145L11.3005 125.515Z" fill="#949BAB"/>
<path d="M200.978 56.6653C201.1 56.0876 201.925 56.0876 202.047 56.6653L203.113 61.6995C203.157 61.9099 203.321 62.0745 203.531 62.1203L208.528 63.2088C209.101 63.3337 209.101 64.1517 208.528 64.2766L203.531 65.3651C203.321 65.4108 203.157 65.5755 203.113 65.7858L202.047 70.8201C201.925 71.3978 201.1 71.3978 200.978 70.8201L199.912 65.7858C199.868 65.5755 199.704 65.4108 199.494 65.3651L194.498 64.2766C193.924 64.1517 193.924 63.3337 194.498 63.2088L199.494 62.1203C199.704 62.0745 199.868 61.9099 199.912 61.6995L200.978 56.6653Z" fill="#949BAB"/>
<path d="M223.007 137.378L224.68 145.283L232.473 146.981L224.68 148.678L223.007 156.584L221.333 148.678L213.541 146.981L221.333 145.283L223.007 137.378Z" fill="#3E4450"/>
<path d="M169.23 75L40 124.452L67.595 201.225L84.261 208.602L105.025 212.973L126.063 212.154L138.357 209.968L149.286 206.689L167.318 197.4L182.618 185.379L183.799 183.852C190.467 175.232 196.379 166.053 201.47 156.418L169.23 75Z" fill="#3E4450"/>
<path d="M50.2486 103.044L36.5879 95.394L155.163 50.587L148.879 66.1603L153.524 80.641L55.4397 118.071L50.2486 103.044Z" fill="#6D7381"/>
<path d="M67.461 201.401C79.418 207.515 92.363 211.463 105.696 213.063L106.029 213.103H115.535C122.656 213.103 129.757 212.345 136.717 210.842L139.074 210.333C146.516 208.727 153.701 206.103 160.427 202.536C165.675 199.753 170.609 196.414 175.144 192.577L176.615 191.332C180.551 188.002 184.203 184.35 187.533 180.414C192.195 174.904 196.2 168.869 199.466 162.432L202.429 156.594" stroke="#949BAB" stroke-width="2"/>
<path d="M39.3643 123.762L68.007 201.93" stroke="#949BAB" stroke-width="2"/>
<path d="M170.78 75.4026L202.203 157.508" stroke="#949BAB" stroke-width="2"/>
<path d="M34.4471 95.621L156.844 49.6288" stroke="#949BAB" stroke-width="2"/>
<path d="M38.7317 125.17L169.059 74.9095L149.846 65.9868C149.295 65.7306 149.058 65.0732 149.321 64.5244L156.012 50.5239" stroke="#949BAB" stroke-width="2"/>
<path d="M35.5447 95.243L49.3214 102.63C49.8451 102.911 50.0485 103.558 49.7793 104.088L39.3644 124.582" stroke="#949BAB" stroke-width="2"/>
<path d="M34.9932 94.254L43.8702 116.444" stroke="#949BAB" stroke-width="2"/>
<path d="M49.9756 103.864L55.4399 119.164" stroke="#949BAB" stroke-width="2"/>
<path d="M149.425 65.6138L154.889 81.46" stroke="#949BAB" stroke-width="2"/>
<path d="M156.107 50.7796L163.95 72.3974" stroke="#949BAB" stroke-width="2"/>
<path d="M90.684 123.536C93.8527 123.536 96.4215 120.967 96.4215 117.798C96.4215 114.629 93.8527 112.061 90.684 112.061C87.5153 112.061 84.9465 114.629 84.9465 117.798C84.9465 120.967 87.5153 123.536 90.684 123.536Z" fill="#6D7381"/>
<path d="M82.488 92.3892C84.7514 92.3892 86.5862 90.5544 86.5862 88.291C86.5862 86.0276 84.7514 84.1928 82.488 84.1928C80.2246 84.1928 78.3898 86.0276 78.3898 88.291C78.3898 90.5544 80.2246 92.3892 82.488 92.3892Z" fill="#3E4450"/>
<path d="M126.748 109.874C129.917 109.874 132.486 107.306 132.486 104.137C132.486 100.968 129.917 98.3995 126.748 98.3995C123.579 98.3995 121.01 100.968 121.01 104.137C121.01 107.306 123.579 109.874 126.748 109.874Z" fill="#6D7381"/>
<path d="M107.624 83.0992C109.887 83.0992 111.722 81.2644 111.722 79.001C111.722 76.7376 109.887 74.9028 107.624 74.9028C105.361 74.9028 103.526 76.7376 103.526 79.001C103.526 81.2644 105.361 83.0992 107.624 83.0992Z" fill="#3E4450"/>
</g>
<defs>
<clipPath id="clip0_2_2">
<rect width="233" height="215" fill="white"/>
</clipPath>
</defs>
</svg>
