<svg width="152" height="95" viewBox="0 0 152 95" fill="none" xmlns="http://www.w3.org/2000/svg">
<path d="M121.956 14H18.285C16.0043 14 14 16.0043 14 18.285V89.6103C14 91.8911 16.0043 91.0617 18.285 91.0617H121.679C123.96 91.0617 125.964 91.8911 125.964 89.6103V18.285C126.241 16.0043 124.236 14 121.956 14Z" fill="#DDE2FF" stroke="#C4CBF5" stroke-width="2" stroke-miterlimit="10"/>
<path d="M139.296 86.6318V88.9126C139.296 91.4698 137.016 93.7505 134.458 93.7505H5.83796C3.28075 93.7505 1 91.4698 1 88.9126V86.6318H139.296V86.6318Z" fill="#C4CBF5" stroke="#DDE2FF" stroke-width="1.5905" stroke-miterlimit="10" stroke-linejoin="round"/>
<path d="M83.3835 86.6318V87.4612C83.3835 88.9126 82.2776 90.2949 80.5498 90.2949H59.4701C58.0187 90.2949 56.6365 89.189 56.6365 87.4612V86.6318H83.3835Z" fill="#2E333D" stroke="#C4CBF5" stroke-width="1.5905" stroke-miterlimit="10" stroke-linejoin="round"/>
<path d="M113.863 22.9091V79.444C113.724 81.7939 111.858 83.7291 109.439 83.7291H25.6736C23.1855 83.7291 21.2504 81.7939 21.2504 79.444V22.9091C21.2504 20.5592 23.1855 18.624 25.6736 18.624H109.508C111.997 18.624 113.863 20.5592 113.863 22.9091Z" fill="#F1F3FF" stroke="#C4CBF5" stroke-width="2" stroke-miterlimit="10"/>
<path d="M26.2956 25.1206C27.125 25.1206 27.8161 24.4295 27.8161 23.6001C27.8161 22.7707 27.125 22.0796 26.2956 22.0796C25.4663 22.0796 24.7751 22.7707 24.7751 23.6001C24.7751 24.4295 25.4663 25.1206 26.2956 25.1206Z" fill="#484E59"/>
<path d="M30.7881 25.1206C31.6174 25.1206 32.3086 24.4295 32.3086 23.6001C32.3086 22.7707 31.6174 22.0796 30.7881 22.0796C29.9587 22.0796 29.2676 22.7707 29.2676 23.6001C29.2676 24.4295 29.9587 25.1206 30.7881 25.1206Z" fill="#484E59"/>
<path d="M35.4187 25.1206C36.2481 25.1206 36.9392 24.4295 36.9392 23.6001C36.9392 22.7707 36.2481 22.0796 35.4187 22.0796C34.5893 22.0796 33.8982 22.7707 33.8982 23.6001C33.8982 24.4295 34.5893 25.1206 35.4187 25.1206Z" fill="#484E59"/>
<path opacity="0.15" d="M113.863 22.9091V77.7853H31.6174C29.1293 77.7853 27.1941 75.8501 27.1941 73.5003V18.624H109.439C111.997 18.624 113.863 20.5592 113.863 22.9091Z" fill="#F1F3FF"/>
<path d="M123.4 13.4403V69.9753C123.4 70.0444 123.4 70.1826 123.4 70.2517C123.193 72.5325 121.327 74.2603 119.046 74.2603H35.2112C32.7231 74.2603 30.788 72.3251 30.788 69.9753V13.4403C30.788 11.0905 32.7231 9.15527 35.2112 9.15527H119.046C121.534 9.15527 123.4 11.0213 123.4 13.4403Z" fill="#F1F3FF" stroke="#C4CBF5" stroke-width="2" stroke-miterlimit="10"/>
<path d="M35.8332 15.6518C36.6626 15.6518 37.3537 14.9607 37.3537 14.1313C37.3537 13.302 36.6626 12.6108 35.8332 12.6108C35.0039 12.6108 34.3127 13.302 34.3127 14.1313C34.3127 14.9607 35.0039 15.6518 35.8332 15.6518Z" fill="#3E4450"/>
<path d="M40.3257 15.6518C41.155 15.6518 41.8462 14.9607 41.8462 14.1313C41.8462 13.302 41.155 12.6108 40.3257 12.6108C39.4963 12.6108 38.8052 13.302 38.8052 14.1313C38.8052 14.9607 39.4963 15.6518 40.3257 15.6518Z" fill="#3E4450"/>
<path d="M44.9563 15.6518C45.7857 15.6518 46.4768 14.9607 46.4768 14.1313C46.4768 13.302 45.7857 12.6108 44.9563 12.6108C44.1269 12.6108 43.4358 13.302 43.4358 14.1313C43.4358 14.9607 44.1269 15.6518 44.9563 15.6518Z" fill="#3E4450"/>
<path opacity="0.15" d="M123.4 13.4406V69.9756C123.4 70.0447 123.4 70.1829 123.4 70.252H41.777C39.2889 70.252 37.3538 68.3168 37.3538 65.967V9.36288C37.3538 9.29377 37.3538 9.15554 37.3538 9.08643H118.977C121.534 9.15554 123.4 11.0216 123.4 13.4406Z" fill="#F1F3FF"/>
<path d="M133.214 61.82C133.076 64.1699 131.21 66.1051 128.791 66.1051H45.0253C42.5372 66.1051 40.6021 64.1699 40.6021 61.82V5.28505C40.6021 2.93518 42.5372 1 45.0253 1H128.86C131.348 1 133.283 2.93518 133.283 5.28505V61.82H133.214Z" fill="#F1F3FF" stroke="#C4CBF5" stroke-width="1.5905" stroke-miterlimit="10" stroke-linejoin="round"/>
<path d="M40.6021 10.8833H133.076" stroke="#C4CBF5" stroke-width="2.1011" stroke-miterlimit="10"/>
<path d="M45.6475 7.56568C46.4768 7.56568 47.168 6.87454 47.168 6.04518C47.168 5.21582 46.4768 4.45557 45.6475 4.45557C44.8181 4.45557 44.127 5.1467 44.127 5.97607C44.127 6.80543 44.8181 7.56568 45.6475 7.56568Z" fill="#6D7381"/>
<path d="M50.1398 7.56568C50.9691 7.56568 51.6603 6.87454 51.6603 6.04518C51.6603 5.21582 50.9691 4.45557 50.1398 4.45557C49.3104 4.45557 48.6193 5.1467 48.6193 5.97607C48.6193 6.80543 49.3104 7.56568 50.1398 7.56568Z" fill="#6D7381"/>
<path d="M54.7703 7.56568C55.5996 7.56568 56.2908 6.87454 56.2908 6.04518C56.2908 5.21582 55.5996 4.45557 54.7703 4.45557C53.9409 4.45557 53.2498 5.1467 53.2498 5.97607C53.2498 6.80543 53.8718 7.56568 54.7703 7.56568Z" fill="#6D7381"/>
<path d="M77.7853 30.0281C79.732 30.0281 81.3101 28.45 81.3101 26.5033C81.3101 24.5566 79.732 22.9785 77.7853 22.9785C75.8386 22.9785 74.2605 24.5566 74.2605 26.5033C74.2605 28.45 75.8386 30.0281 77.7853 30.0281Z" fill="#6D7381"/>
<path d="M94.6491 30.0281C96.5958 30.0281 98.1739 28.45 98.1739 26.5033C98.1739 24.5566 96.5958 22.9785 94.6491 22.9785C92.7024 22.9785 91.1243 24.5566 91.1243 26.5033C91.1243 28.45 92.7024 30.0281 94.6491 30.0281Z" fill="#6D7381"/>
<path d="M93.6123 44.6107H78.822C76.4721 44.6107 75.1589 41.9844 76.5412 40.0492C77.5779 38.5978 78.8911 37.4229 80.4116 36.5244C82.1394 35.5568 84.1437 35.0039 86.2171 35.0039C88.7052 35.0039 90.986 35.7642 92.9212 37.0773C94.0961 37.9067 95.1328 38.8743 95.9622 40.0492C97.2753 41.9844 95.9622 44.6107 93.6123 44.6107Z" fill="#6D7381"/>
<path d="M91.4006 44.6109H81.1026C81.0335 44.4727 81.0335 44.3345 81.1026 44.1962C81.8629 42.0537 83.8672 40.5332 86.2861 40.5332C88.7051 40.5332 90.7094 42.0537 91.4697 44.1962C91.4697 44.3345 91.4697 44.4727 91.4006 44.6109Z" fill="#2E333D"/>
<path d="M92.9212 37.7687V38.3216C92.9212 38.7363 92.5756 39.0128 92.23 39.0128H81.1718C80.7572 39.0128 80.4807 38.6672 80.4807 38.3216V37.2158C82.2086 36.2482 84.2129 35.6953 86.2863 35.6953C88.7052 35.6953 90.986 36.4556 92.9212 37.7687Z" fill="#C7CDDB"/>
<path d="M60.4378 25.462C60.4378 26.8466 59.3627 27.9543 58.0188 27.9543C56.675 27.9543 55.5999 26.8466 55.5999 25.462C55.5999 24.4098 57.0512 21.2529 57.6963 19.8683C57.8038 19.5914 58.1801 19.5914 58.3414 19.8683C58.9864 21.1975 60.4378 24.3544 60.4378 25.462Z" fill="#C4CBF5"/>
<path d="M146.208 12.5419C147.314 13.5786 147.452 15.3065 146.415 16.4814C145.378 17.5872 143.651 17.7254 142.476 16.6887C141.577 15.9285 140.057 12.3346 139.435 10.745C139.296 10.4685 139.573 10.1229 139.918 10.192C141.577 10.6067 145.309 11.7125 146.208 12.5419Z" fill="#F1F3FF"/>
<path d="M145.793 24.775C146.622 26.0882 146.277 27.7469 144.964 28.5763C143.651 29.4056 141.992 29.0601 141.163 27.7469C140.54 26.7793 139.988 22.909 139.78 21.1811C139.711 20.8356 140.126 20.6282 140.402 20.7664C141.854 21.6649 145.171 23.7383 145.793 24.775Z" fill="#F1F3FF"/>
<path d="M54.9086 31.6823C54.9086 33.0668 53.8335 34.1745 52.4897 34.1745C51.1458 34.1745 50.0707 33.0668 50.0707 31.6823C50.0707 30.63 51.5221 27.4731 52.1671 26.0885C52.2746 25.8116 52.6509 25.8116 52.8122 26.0885C53.4572 27.4731 54.9086 30.63 54.9086 31.6823Z" fill="#C4CBF5"/>
<path d="M121.823 45H136.475C137.373 45 138.203 45.3456 138.825 45.9676L149.192 56.3346C149.814 56.9567 150.159 57.786 150.159 58.6845V73.2675C150.159 74.166 149.814 74.9953 149.192 75.6174L138.963 85.8462C138.341 86.4682 137.512 86.8138 136.613 86.8138H121.823C120.924 86.8138 120.095 86.4682 119.473 85.8462L108.968 75.3409C108.346 74.7189 108 73.8895 108 72.991V58.6845C108 57.786 108.346 56.9567 108.968 56.3346L119.404 45.9676C120.095 45.3456 120.924 45 121.823 45Z" fill="#F1F3FF" stroke="#C4CBF5" stroke-width="2" stroke-miterlimit="10" stroke-linejoin="round"/>
<path d="M131.976 51.8587V58.7945C131.976 59.2569 131.976 59.7193 131.907 60.2478L131.147 65.2019C131.078 65.5983 130.732 65.9285 130.248 65.9285H128.728C128.313 65.9285 127.898 65.5983 127.829 65.2019L127.069 60.2478C127 59.7854 127 59.323 127 58.7945V51.8587C127 51.3963 127.415 51 127.898 51H131.068C131.12 51 131.173 51.0032 131.224 51.0154C131.612 51.1078 131.976 51.4252 131.976 51.8587Z" fill="#C4CBF5"/>
<path d="M130.865 77.44H127.478C126.925 77.44 126.441 76.9562 126.441 76.4033V73.0167C126.441 72.4638 126.925 71.98 127.478 71.98H130.865C131.417 71.98 131.901 72.4638 131.901 73.0167V76.4033C131.901 76.9562 131.417 77.44 130.865 77.44Z" fill="#C4CBF5"/>
</svg>
