<svg width="201" height="215" viewBox="0 0 201 215" fill="none" xmlns="http://www.w3.org/2000/svg">
<g clip-path="url(#clip0_2_70)">
<path d="M99.624 214.049C152.587 214.049 195.522 171.114 195.522 118.151C195.522 65.1879 152.587 22.2528 99.624 22.2528C46.6609 22.2528 3.7258 65.1879 3.7258 118.151C3.7258 171.114 46.6609 214.049 99.624 214.049Z" fill="#F1F3FF"/>
<path d="M22.8633 44.1078C26.1829 44.1078 28.874 41.4167 28.874 38.0971C28.874 34.7775 26.1829 32.0864 22.8633 32.0864C19.5437 32.0864 16.8526 34.7775 16.8526 38.0971C16.8526 41.4167 19.5437 44.1078 22.8633 44.1078Z" fill="#F1F3FF"/>
<path d="M48.833 22.85C55.0196 22.85 60.0348 17.8348 60.0348 11.6482C60.0348 5.46161 55.0196 0.446396 48.833 0.446396C42.6464 0.446396 37.6312 5.46161 37.6312 11.6482C37.6312 17.8348 42.6464 22.85 48.833 22.85Z" fill="#F1F3FF"/>
<path d="M11.6485 190.551C17.5333 190.551 22.3039 185.781 22.3039 179.896C22.3039 174.011 17.5333 169.241 11.6485 169.241C5.76368 169.241 0.993099 174.011 0.993099 179.896C0.993099 185.781 5.76368 190.551 11.6485 190.551Z" fill="#F1F3FF"/>
<path d="M197.447 149.621C199.107 149.621 200.452 148.276 200.452 146.616C200.452 144.956 199.107 143.611 197.447 143.611C195.787 143.611 194.442 144.956 194.442 146.616C194.442 148.276 195.787 149.621 197.447 149.621Z" fill="#F1F3FF"/>
<path d="M115.628 37.2988C115.311 37.2315 115.311 36.7793 115.628 36.712L120.418 35.6934C120.533 35.6688 120.624 35.5789 120.649 35.4635L121.68 30.7075C121.748 30.3922 122.198 30.3922 122.266 30.7075L123.298 35.4635C123.323 35.5789 123.413 35.6688 123.528 35.6934L128.318 36.712C128.635 36.7793 128.635 37.2315 128.318 37.2988L123.528 38.3174C123.413 38.342 123.323 38.4319 123.298 38.5473L122.266 43.3033C122.198 43.6186 121.748 43.6186 121.68 43.3033L120.649 38.5473C120.624 38.4319 120.533 38.3419 120.418 38.3174L115.628 37.2988Z" fill="#C4CBF5"/>
<path d="M187.224 174.843C187.334 174.324 188.076 174.324 188.186 174.843L189.829 182.607C189.869 182.796 190.016 182.944 190.205 182.985L197.888 184.659C198.404 184.771 198.404 185.507 197.888 185.62L190.205 187.293C190.016 187.335 189.869 187.483 189.829 187.672L188.186 195.435C188.076 195.955 187.334 195.955 187.224 195.435L185.581 187.672C185.541 187.483 185.393 187.335 185.204 187.293L177.521 185.62C177.005 185.507 177.005 184.771 177.521 184.659L185.204 182.985C185.393 182.944 185.541 182.796 185.581 182.607L187.224 174.843Z" fill="#C4CBF5"/>
<path d="M79.322 33.8882C79.406 33.4881 79.978 33.4881 80.062 33.8882L80.8 37.3756C80.831 37.5213 80.945 37.6353 81.09 37.667L84.551 38.4211C84.949 38.5076 84.949 39.0742 84.551 39.1608L81.09 39.9148C80.945 39.9465 80.831 40.0605 80.8 40.2062L80.062 43.6936C79.978 44.0938 79.406 44.0938 79.322 43.6936L78.583 40.2062C78.553 40.0605 78.439 39.9465 78.294 39.9148L74.832 39.1608C74.435 39.0742 74.435 38.5076 74.832 38.4211L78.294 37.667C78.439 37.6353 78.553 37.5213 78.583 37.3756L79.322 33.8882Z" fill="#C4CBF5"/>
<path d="M43.5634 148.106C55.866 144.58 48.778 147.091 55.94 144.395C61.348 141.215 66.93 138.286 73.53 136.799C79.137 135.537 79 135.696 85.139 135.998C88.071 136.9 90.497 138.868 90.952 141.178C91.327 143.086 87.482 145.909 85.139 146.95C76.385 150.84 80.653 148.797 74.255 150.576C62.373 153.879 49.586 159.529 44.5944 168.318C41.8853 173.087 41.2288 178.63 43.598 183.018C46.9154 189.161 57.091 194.267 67.196 193.386C71.247 193.033 75.967 192.263 79.855 191.06C83.966 189.787 86.658 188.803 90.207 186.829C98.438 182.248 108.248 176.297 116.27 171.529" stroke="#C4CBF5" stroke-width="2" stroke-linecap="round" stroke-dasharray="4.77 4.77"/>
<path d="M147.163 23.2059C178.943 26.1169 202.347 54.24 199.436 86.02C199.082 89.886 198.353 93.629 197.29 97.216C193.792 112.579 182.671 128.01 170.829 140.851C159.698 152.921 147.83 162.808 140.769 168.333L139.422 169.38C136.261 171.819 131.874 171.524 129.096 168.707L128.832 168.427C123.633 162.63 114.448 151.823 105.827 138.841C97.223 125.885 89.126 110.682 86.165 96.085C84.369 89.561 83.696 82.611 84.349 75.479C87.26 43.6984 115.383 20.295 147.163 23.2059Z" fill="#F1F3FF" stroke="#C4CBF5" stroke-width="2"/>
<path d="M143.956 58.212C156.403 59.352 165.569 70.366 164.429 82.813C163.289 95.261 152.275 104.427 139.828 103.287C127.38 102.147 118.214 91.132 119.354 78.685C120.494 66.238 131.509 57.072 143.956 58.212Z" fill="white" stroke="#C4CBF5" stroke-width="2"/>
<path d="M22.6988 79.871C35.2479 76.866 47.8566 84.603 50.861 97.152C51.229 98.685 51.435 100.218 51.493 101.734L51.494 101.767L51.497 101.799C52.153 108.142 49.885 115.663 46.862 122.458C44.2289 128.376 41.0753 133.632 38.9709 136.892L38.1375 138.163C37.604 138.964 36.6148 139.244 35.7629 138.864L35.5941 138.78C32.7178 137.158 27.5623 134.067 22.3468 130.034C17.1162 125.99 11.9014 121.054 8.8283 115.761L8.8111 115.731L8.7922 115.703L8.5077 115.274C7.1117 113.113 6.0514 110.681 5.4175 108.034C2.4128 95.485 10.1499 82.876 22.6988 79.871Z" fill="#C4CBF5" stroke="#C4CBF5" stroke-width="2"/>
<path d="M25.7454 92.594C31.2676 91.272 36.8166 94.676 38.1391 100.198C39.4614 105.721 36.0561 111.27 30.5338 112.592C25.0117 113.914 19.4631 110.509 18.1409 104.987C16.8189 99.465 20.2235 93.917 25.7454 92.594Z" fill="white" stroke="#C4CBF5" stroke-width="2"/>
</g>
<defs>
<clipPath id="clip0_2_70">
<rect width="201" height="215" fill="white"/>
</clipPath>
</defs>
</svg>
