<svg width="306" height="306" viewBox="0 0 306 306" fill="none" xmlns="http://www.w3.org/2000/svg">
<circle cx="151.624" cy="164.151" r="95.8982" fill="#F1F3FF"/>
<circle cx="74.8633" cy="84.0971" r="6.01071" fill="#F1F3FF"/>
<circle cx="100.833" cy="57.6482" r="11.2018" fill="#F1F3FF"/>
<circle cx="63.6485" cy="225.896" r="10.6554" fill="#F1F3FF"/>
<circle cx="249.447" cy="192.616" r="3.00536" fill="#F1F3FF"/>
<path d="M167.628 83.2988C167.311 83.2315 167.311 82.7793 167.628 82.712L172.418 81.6934C172.533 81.6688 172.624 81.5789 172.649 81.4635L173.68 76.7075C173.748 76.3922 174.198 76.3922 174.266 76.7075L175.298 81.4635C175.323 81.5789 175.413 81.6688 175.528 81.6934L180.318 82.712C180.635 82.7793 180.635 83.2315 180.318 83.2988L175.528 84.3174C175.413 84.342 175.323 84.4319 175.298 84.5473L174.266 89.3033C174.198 89.6186 173.748 89.6186 173.68 89.3033L172.649 84.5473C172.624 84.4319 172.533 84.3419 172.418 84.3174L167.628 83.2988Z" fill="#C4CBF5"/>
<path d="M239.224 220.843C239.334 220.324 240.076 220.324 240.186 220.843L241.829 228.607C241.869 228.796 242.016 228.944 242.205 228.985L249.888 230.659C250.404 230.771 250.404 231.507 249.888 231.62L242.205 233.293C242.016 233.335 241.869 233.483 241.829 233.672L240.186 241.435C240.076 241.955 239.334 241.955 239.224 241.435L237.581 233.672C237.541 233.483 237.393 233.335 237.204 233.293L229.521 231.62C229.005 231.507 229.005 230.771 229.521 230.659L237.204 228.985C237.393 228.944 237.541 228.796 237.581 228.607L239.224 220.843Z" fill="#C4CBF5"/>
<path d="M131.322 79.8882C131.406 79.4881 131.978 79.4881 132.062 79.8882L132.8 83.3756C132.831 83.5213 132.945 83.6353 133.09 83.667L136.551 84.4211C136.949 84.5076 136.949 85.0742 136.551 85.1608L133.09 85.9148C132.945 85.9465 132.831 86.0605 132.8 86.2062L132.062 89.6936C131.978 90.0938 131.406 90.0938 131.322 89.6936L130.583 86.2062C130.553 86.0605 130.439 85.9465 130.294 85.9148L126.832 85.1608C126.435 85.0742 126.435 84.5076 126.832 84.4211L130.294 83.667C130.439 83.6353 130.553 83.5213 130.583 83.3756L131.322 79.8882Z" fill="#C4CBF5"/>
<path d="M95.5634 194.106C107.866 190.58 100.778 193.091 107.94 190.395C113.348 187.215 118.93 184.286 125.53 182.799C131.137 181.537 131 181.696 137.139 181.998C140.071 182.9 142.497 184.868 142.952 187.178C143.327 189.086 139.482 191.909 137.139 192.95C128.385 196.84 132.653 194.797 126.255 196.576C114.373 199.879 101.586 205.529 96.5944 214.318C93.8853 219.087 93.2288 224.63 95.598 229.018C98.9154 235.161 109.091 240.267 119.196 239.386C123.247 239.033 127.967 238.263 131.855 237.06C135.966 235.787 138.658 234.803 142.207 232.829C150.438 228.248 160.248 222.297 168.27 217.529" stroke="#C4CBF5" stroke-width="2" stroke-linecap="round" stroke-dasharray="4.77 4.77"/>
<path d="M199.163 69.2059C230.943 72.1169 254.347 100.24 251.436 132.02C251.082 135.886 250.353 139.629 249.29 143.216C245.792 158.579 234.671 174.01 222.829 186.851C211.698 198.921 199.83 208.808 192.769 214.333L191.422 215.38C188.261 217.819 183.874 217.524 181.096 214.707L180.832 214.427C175.633 208.63 166.448 197.823 157.827 184.841C149.223 171.885 141.126 156.682 138.165 142.085C136.369 135.561 135.696 128.611 136.349 121.479C139.26 89.6984 167.383 66.295 199.163 69.2059Z" fill="#F1F3FF" stroke="#C4CBF5" stroke-width="2"/>
<path d="M195.956 104.212C208.403 105.352 217.569 116.366 216.429 128.813C215.289 141.261 204.275 150.427 191.828 149.287C179.38 148.147 170.214 137.132 171.354 124.685C172.494 112.238 183.509 103.072 195.956 104.212Z" fill="white" stroke="#C4CBF5" stroke-width="2"/>
<path d="M74.6988 125.871C87.2479 122.866 99.8566 130.603 102.861 143.152C103.229 144.685 103.435 146.218 103.493 147.734L103.494 147.767L103.497 147.799C104.153 154.142 101.885 161.663 98.862 168.458C96.2289 174.376 93.0753 179.632 90.9709 182.892L90.1375 184.163C89.604 184.964 88.6148 185.244 87.7629 184.864L87.5941 184.78C84.7178 183.158 79.5623 180.067 74.3468 176.034C69.1162 171.99 63.9014 167.054 60.8283 161.761L60.8111 161.731L60.7922 161.703L60.5077 161.274C59.1117 159.113 58.0514 156.681 57.4175 154.034C54.4128 141.485 62.1499 128.876 74.6988 125.871Z" fill="#C4CBF5" stroke="#C4CBF5" stroke-width="2"/>
<path d="M77.7454 138.594C83.2676 137.272 88.8166 140.676 90.1391 146.198C91.4614 151.721 88.0561 157.27 82.5338 158.592C77.0117 159.914 71.4631 156.509 70.1409 150.987C68.8189 145.465 72.2235 139.917 77.7454 138.594Z" fill="white" stroke="#C4CBF5" stroke-width="2"/>
</svg>
