<svg width="144" height="117" viewBox="0 0 144 117" fill="none" xmlns="http://www.w3.org/2000/svg">
<path d="M72.2534 116.003C103.896 116.003 129.507 90.2405 129.507 58.455C129.507 26.6694 103.896 1 72.2534 1C40.7037 1 15 26.7621 15 58.5476C15 90.3332 40.7037 116.003 72.2534 116.003Z" fill="#F1F3FF" stroke="#C4CBF5" stroke-width="2" stroke-miterlimit="10"/>
<path d="M6.40267 71.9221C8.53691 71.9221 10.2072 70.2541 10.2072 68.1227C10.2072 65.9913 8.53691 64.3232 6.40267 64.3232C4.26842 64.3232 2.59814 65.9913 2.59814 68.1227C2.59814 70.2541 4.36122 71.9221 6.40267 71.9221Z" fill="#F1F3FF"/>
<path d="M2.59821 59.5972C3.99011 59.5972 5.19642 58.3925 5.19642 57.0025C5.19642 55.6124 3.99011 54.4077 2.59821 54.4077C1.20631 54.4077 0 55.6124 0 57.0025C0 58.4852 1.20631 59.5972 2.59821 59.5972Z" fill="#F1F3FF"/>
<path d="M138.726 81.467C141.417 81.467 143.551 79.3356 143.551 76.6481C143.551 73.9607 141.417 71.8293 138.726 71.8293C136.035 71.8293 133.901 73.9607 133.901 76.6481C133.901 79.3356 136.035 81.467 138.726 81.467Z" fill="#F1F3FF"/>
<circle cx="70.6175" cy="28.6049" r="2.23823" fill="#4D4D4D"/>
<path d="M113.372 106.197H29.3551C26.224 106.197 23.6147 103.61 23.6147 100.505V15.6447C23.6147 12.5401 26.224 9.95288 29.3551 9.95288H113.372C116.503 9.95288 119.113 12.5401 119.113 15.6447V100.505C119.113 103.61 116.503 106.197 113.372 106.197Z" fill="#F1F3FF" stroke="#C4CBF5" stroke-width="2" stroke-miterlimit="10"/>
<path d="M70.8772 42.0341C77.4699 42.0341 82.8144 36.6896 82.8144 30.0969C82.8144 23.5041 77.4699 18.1597 70.8772 18.1597C64.2844 18.1597 58.9399 23.5041 58.9399 30.0969C58.9399 36.6896 64.2844 42.0341 70.8772 42.0341Z" fill="#F1F3FF" stroke="#C4CBF5" stroke-width="2" stroke-miterlimit="10"/>
<path d="M70.8772 30.8431C73.3495 30.8431 75.3537 28.8389 75.3537 26.3666C75.3537 23.8943 73.3495 21.8901 70.8772 21.8901C68.4049 21.8901 66.4008 23.8943 66.4008 26.3666C66.4008 28.8389 68.4049 30.8431 70.8772 30.8431Z" fill="#C4CBF5"/>
<path d="M79.8302 38.3074C77.6656 40.6044 74.6218 42.0342 71.2503 42.0342C67.8788 42.0342 64.8349 40.6044 62.6704 38.3074C63.8656 34.8375 67.2553 32.3352 71.2503 32.3352C75.2452 32.3352 78.635 34.8375 79.8302 38.3074Z" fill="#C4CBF5"/>
<path d="M103.344 60.1911H38.5489C37.7745 60.1911 37 59.3303 37 58.4694V50.7217C37 49.8609 37.7745 49 38.5489 49H103.344C104.119 49 104.893 49.8609 104.893 50.7217V58.4694C104.893 59.3303 104.119 60.1911 103.344 60.1911Z" fill="#F1F3FF" stroke="#C4CBF5" stroke-width="2" stroke-miterlimit="10"/>
<path d="M103.388 77.0998H38.593C37.8185 77.0998 37.0441 76.239 37.0441 75.3781V67.6304C37.0441 66.7695 37.8185 65.9087 38.593 65.9087H103.388C104.163 65.9087 104.937 66.7695 104.937 67.6304V75.3781C104.937 76.239 104.163 77.0998 103.388 77.0998Z" fill="#F1F3FF" stroke="#C4CBF5" stroke-width="2" stroke-miterlimit="10"/>
<path d="M103.247 84H79.6115C78.8058 84 78 84.6732 78 86.0197V93.4253C78 94.4352 78.5372 95.4451 79.6115 95.4451H103.247C104.053 95.4451 104.859 94.7718 104.859 93.4253V86.0197C104.859 84.9538 104.053 84 103.247 84Z" fill="#F1F3FF" stroke="#C4CBF5" stroke-width="2" stroke-miterlimit="10"/>
<path d="M97.9375 88.291H85.8239C85.3084 88.291 84.793 88.9141 84.793 89.5371C84.793 90.1601 85.3084 90.7832 85.8239 90.7832H97.9375C98.453 90.7832 98.9684 90.1601 98.9684 89.5371C98.9684 88.6025 98.453 88.291 97.9375 88.291Z" fill="#C4CBF5"/>
<rect x="42" y="54" width="29.097" height="2.23823" rx="1.11911" fill="#C4CBF5"/>
<rect x="41.5205" y="70.385" width="2.23823" height="2.23823" rx="1.11911" fill="#C4CBF5"/>
<rect x="45.9971" y="70.385" width="2.23823" height="2.23823" rx="1.11911" fill="#C4CBF5"/>
<rect x="50.4734" y="70.385" width="2.23823" height="2.23823" rx="1.11911" fill="#C4CBF5"/>
<rect x="54.9498" y="70.385" width="2.23823" height="2.23823" rx="1.11911" fill="#C4CBF5"/>
<rect x="58.6803" y="70.385" width="2.23823" height="2.23823" rx="1.11911" fill="#C4CBF5"/>
<rect x="63.1567" y="70.385" width="2.23823" height="2.23823" rx="1.11911" fill="#C4CBF5"/>
</svg>
