<svg width="306" height="306" viewBox="0 0 306 306" fill="none" xmlns="http://www.w3.org/2000/svg">
<circle cx="151.088" cy="153.819" r="95.8982" fill="#3E4450"/>
<circle cx="61.2002" cy="89.0676" r="6.01071" fill="#3E4450"/>
<circle cx="216.659" cy="65.298" r="11.2018" fill="#3E4450"/>
<circle cx="63.1124" cy="215.566" r="10.6554" fill="#3E4450"/>
<circle cx="253.816" cy="205.184" r="10.6554" fill="#3E4450"/>
<circle cx="233.051" cy="217.205" r="5.19107" fill="#3E4450"/>
<path d="M167.093 72.9682C166.776 72.9008 166.776 72.4487 167.093 72.3813L171.883 71.3628C171.998 71.3382 172.088 71.2482 172.113 71.1329L173.145 66.3768C173.213 66.0616 173.663 66.0616 173.731 66.3768L174.762 71.1329C174.787 71.2482 174.878 71.3382 174.993 71.3628L179.783 72.3813C180.1 72.4487 180.1 72.9008 179.783 72.9682L174.993 73.9868C174.878 74.0113 174.787 74.1013 174.762 74.2166L173.731 78.9727C173.663 79.2879 173.213 79.2879 173.145 78.9727L172.113 74.2166C172.088 74.1013 171.998 74.0113 171.883 73.9868L167.093 72.9682Z" fill="#C7CDDB"/>
<path d="M50.3933 157.711C50.5156 157.133 51.3402 157.133 51.4625 157.711L53.2891 166.341C53.3336 166.551 53.4973 166.716 53.7074 166.761L62.2478 168.622C62.8213 168.747 62.8213 169.565 62.2478 169.69L53.7074 171.55C53.4973 171.596 53.3336 171.761 53.2891 171.971L51.4625 180.6C51.3402 181.178 50.5156 181.178 50.3933 180.6L48.5667 171.971C48.5222 171.761 48.3585 171.596 48.1484 171.55L39.608 169.69C39.0345 169.565 39.0345 168.747 39.608 168.622L48.1484 166.761C48.3585 166.716 48.5222 166.551 48.5667 166.341L50.3933 157.711Z" fill="#C7CDDB"/>
<path d="M236.792 91.5932C236.914 91.0155 237.738 91.0155 237.861 91.5932L238.926 96.6275C238.971 96.8378 239.135 97.0024 239.345 97.0482L244.341 98.1367C244.915 98.2616 244.915 99.0796 244.341 99.2045L239.345 100.293C239.135 100.339 238.971 100.503 238.926 100.714L237.861 105.748C237.738 106.326 236.914 106.326 236.792 105.748L235.726 100.714C235.681 100.503 235.518 100.339 235.308 100.293L230.311 99.2045C229.738 99.0796 229.738 98.2616 230.311 98.1367L235.308 97.0482C235.518 97.0024 235.681 96.8378 235.726 96.6275L236.792 91.5932Z" fill="#C7CDDB"/>
<path d="M258.82 172.306L260.494 180.211L268.286 181.909L260.494 183.606L258.82 191.512L257.147 183.606L249.354 181.909L257.147 180.211L258.82 172.306Z" fill="#1F2229"/>
<path d="M108.034 114.622C111.292 116.04 113.642 117.27 115.263 118.354C116.908 119.454 117.687 120.329 117.98 120.991C118.225 121.547 118.164 122.03 117.759 122.613C117.309 123.262 116.471 123.96 115.257 124.747C114.059 125.522 112.603 126.318 110.995 127.2C109.4 128.074 107.672 129.025 105.991 130.088C102.645 132.204 99.3499 134.844 97.5465 138.415C95.7294 142.014 95.7557 146.185 96.2893 150.058C96.5576 152.005 96.9598 153.916 97.3453 155.678C97.7346 157.457 98.1004 159.06 98.3169 160.459C98.5364 161.878 98.5767 162.945 98.3998 163.681C98.3154 164.032 98.1917 164.265 98.0501 164.423C97.9142 164.575 97.718 164.708 97.404 164.793C96.7245 164.978 95.5532 164.925 93.6219 164.345C91.734 163.778 89.2529 162.748 86.0235 161.15C77.2583 155.012 71.1935 148.748 68.1224 142.468C65.0693 136.225 64.9518 129.931 68.1606 123.576C74.5495 110.925 92.2905 106.674 107.983 114.598L108.008 114.61L108.034 114.622Z" fill="#949BAB" stroke="#C7CDDB" stroke-width="2"/>
<path d="M32.0926 110.399L32.7459 110.345C45.8094 109.264 58.884 112.295 70.1399 119.012V119.012" stroke="#C7CDDB" stroke-width="2"/>
<path d="M28.1179 117.858L29.2073 117.764C42.1197 116.654 55.0588 119.575 66.2421 126.124V126.124" stroke="#C7CDDB" stroke-width="2"/>
<path d="M123.723 118.837C133.449 124.384 137.38 130.082 138.136 136.036C138.904 142.094 136.439 148.694 132.673 156.153C128.922 163.581 124.673 169.62 119.131 172.664C113.678 175.66 106.758 175.864 97.3543 171.116L96.7938 170.822C85.1378 164.493 81.1852 148.157 88.429 133.812C95.7829 119.249 111.638 112.753 123.723 118.837Z" fill="#949BAB" stroke="#C7CDDB" stroke-width="2"/>
<ellipse cx="116.027" cy="147.674" rx="20.8944" ry="28.7535" transform="rotate(-155.936 116.027 147.674)" fill="#1F2229"/>
<path d="M129.239 121.622C134.429 124.243 137.77 129.485 138.89 135.977C140.01 142.469 138.889 150.142 135.208 157.433C131.526 164.724 126.016 170.181 120.127 173.133C114.238 176.086 108.036 176.51 102.846 173.889C97.6547 171.267 94.3145 166.025 93.1943 159.533C92.0741 153.041 93.1948 145.368 96.8763 138.077C100.558 130.786 106.068 125.329 111.957 122.377C117.846 119.424 124.048 119 129.239 121.622Z" fill="#1F2229" stroke="#C7CDDB" stroke-width="2"/>
<path d="M120.629 144.709C118.748 143.759 117.944 141.224 119.089 138.956C120.234 136.689 122.751 135.831 124.633 136.781C126.513 137.731 127.317 140.266 126.172 142.533C125.027 144.8 122.511 145.658 120.629 144.709Z" fill="#C7CDDB" stroke="#C7CDDB" stroke-width="2"/>
<path d="M112.526 160.753C110.645 159.803 109.841 157.268 110.986 155.001C112.131 152.734 114.648 151.876 116.529 152.826C118.41 153.776 119.213 156.31 118.068 158.577C116.924 160.844 114.407 161.703 112.526 160.753Z" fill="#C7CDDB" stroke="#C7CDDB" stroke-width="2"/>
<path d="M203.182 209.168C200.32 211.107 198.053 212.339 196.258 213.006C194.453 213.677 193.231 213.739 192.389 213.492C191.589 213.257 190.968 212.693 190.461 211.701C189.941 210.683 189.58 209.286 189.308 207.54C189.037 205.803 188.864 203.807 188.677 201.616C188.491 199.438 188.292 197.082 187.968 194.68C187.32 189.881 186.163 184.803 183.533 180.388C180.905 175.975 176.995 172.51 173.088 169.619C171.132 168.171 169.158 166.853 167.332 165.633C165.497 164.405 163.824 163.284 162.426 162.203C161.021 161.117 159.963 160.123 159.314 159.174C158.68 158.247 158.483 157.435 158.655 156.633C158.837 155.792 159.467 154.768 160.912 153.534C162.349 152.307 164.507 150.945 167.571 149.411L167.604 149.395L167.635 149.376C187.78 137.377 211.879 141.341 221.624 157.7C231.368 174.06 223.375 197.138 203.231 209.137L203.206 209.152L203.182 209.168Z" fill="#949BAB" stroke="#C7CDDB" stroke-width="2"/>
<path d="M261.766 126.849L261.362 127.619C253.277 143.019 240.58 155.506 225.047 163.333V163.333" stroke="#C7CDDB" stroke-width="2"/>
<path d="M256.24 117.089L255.57 118.376C247.626 133.627 235.148 146.041 219.855 153.906V153.906" stroke="#C7CDDB" stroke-width="2"/>
<path d="M138.802 162.247L144.734 158.713L149.588 155.822" stroke="#C7CDDB" stroke-width="2"/>
<path d="M187.268 223.76C174.291 231.017 165 231.404 157.616 227.886C150.13 224.32 144.346 216.636 138.672 207.11C133.024 197.627 129.093 187.805 129.571 178.972C129.808 174.579 131.136 170.425 133.901 166.651C136.672 162.87 140.922 159.42 147.075 156.504L147.117 156.483L147.158 156.459C162.792 147.147 184.585 154.398 195.737 173.12C206.884 191.835 202.888 214.442 187.268 223.76Z" fill="#949BAB" stroke="#C7CDDB" stroke-width="2"/>
<path d="M180.241 227.947C173.502 231.961 165.142 231.958 157.003 228.564C148.864 225.169 141.015 218.403 135.437 209.038C129.859 199.673 127.647 189.549 128.539 180.776C129.431 172.003 133.409 164.649 140.148 160.636C146.886 156.622 155.247 156.626 163.386 160.02C171.525 163.414 179.373 170.18 184.952 179.545C190.53 188.91 192.742 199.034 191.85 207.807C190.958 216.58 186.98 223.934 180.241 227.947Z" fill="#1F2229" stroke="#C7CDDB" stroke-width="2"/>
<path d="M167.598 207.536L135.057 226.919C132.708 228.318 129.669 227.548 128.27 225.199C126.871 222.85 127.641 219.811 129.99 218.412L162.531 199.03C164.88 197.63 167.919 198.4 169.318 200.749C170.717 203.098 169.947 206.137 167.598 207.536Z" fill="#3E4450" stroke="#C7CDDB" stroke-width="2"/>
<path d="M153.937 186.772L121.396 206.154C119.047 207.554 116.008 206.783 114.609 204.434C113.21 202.085 113.98 199.047 116.329 197.648L148.87 178.265C151.219 176.866 154.258 177.636 155.657 179.984C157.056 182.334 156.286 185.373 153.937 186.772Z" fill="#3E4450" stroke="#C7CDDB" stroke-width="2"/>
</svg>
