<svg width="241" height="196" viewBox="0 0 241 196" fill="none" xmlns="http://www.w3.org/2000/svg">
<g clip-path="url(#clip0_2_111)">
<path d="M123.088 195.717C176.051 195.717 218.986 152.782 218.986 99.819C218.986 46.8559 176.051 3.9208 123.088 3.9208C70.1249 3.9208 27.1898 46.8559 27.1898 99.819C27.1898 152.782 70.1249 195.717 123.088 195.717Z" fill="#F1F3FF"/>
<path d="M33.2002 41.0783C36.5198 41.0783 39.2109 38.3872 39.2109 35.0676C39.2109 31.748 36.5198 29.0569 33.2002 29.0569C29.8806 29.0569 27.1895 31.748 27.1895 35.0676C27.1895 38.3872 29.8806 41.0783 33.2002 41.0783Z" fill="#F1F3FF"/>
<path d="M188.659 22.4998C194.846 22.4998 199.861 17.4846 199.861 11.298C199.861 5.11141 194.846 0.096199 188.659 0.096199C182.472 0.096199 177.457 5.11141 177.457 11.298C177.457 17.4846 182.472 22.4998 188.659 22.4998Z" fill="#F1F3FF"/>
<path d="M35.1124 172.221C40.9972 172.221 45.7678 167.451 45.7678 161.566C45.7678 155.681 40.9972 150.911 35.1124 150.911C29.2276 150.911 24.457 155.681 24.457 161.566C24.457 167.451 29.2276 172.221 35.1124 172.221Z" fill="#F1F3FF"/>
<path d="M225.816 161.839C231.701 161.839 236.471 157.069 236.471 151.184C236.471 145.299 231.701 140.529 225.816 140.529C219.931 140.529 215.161 145.299 215.161 151.184C215.161 157.069 219.931 161.839 225.816 161.839Z" fill="#F1F3FF"/>
<path d="M205.051 168.396C207.918 168.396 210.242 166.072 210.242 163.205C210.242 160.338 207.918 158.014 205.051 158.014C202.184 158.014 199.86 160.338 199.86 163.205C199.86 166.072 202.184 168.396 205.051 168.396Z" fill="#F1F3FF"/>
<path d="M139.093 18.9682C138.776 18.9008 138.776 18.4487 139.093 18.3813L143.883 17.3628C143.998 17.3382 144.088 17.2482 144.113 17.1329L145.145 12.3768C145.213 12.0616 145.663 12.0616 145.731 12.3768L146.762 17.1329C146.787 17.2482 146.878 17.3382 146.993 17.3628L151.783 18.3813C152.1 18.4487 152.1 18.9008 151.783 18.9682L146.993 19.9868C146.878 20.0113 146.787 20.1013 146.762 20.2166L145.731 24.9727C145.663 25.2879 145.213 25.2879 145.145 24.9727L144.113 20.2166C144.088 20.1013 143.998 20.0113 143.883 19.9868L139.093 18.9682Z" fill="#C4CBF5"/>
<path d="M22.3933 103.711C22.5156 103.133 23.3402 103.133 23.4625 103.711L25.2891 112.341C25.3336 112.551 25.4973 112.716 25.7074 112.761L34.2478 114.622C34.8213 114.747 34.8213 115.565 34.2478 115.69L25.7074 117.55C25.4973 117.596 25.3336 117.761 25.2891 117.971L23.4625 126.6C23.3402 127.178 22.5156 127.178 22.3933 126.6L20.5667 117.971C20.5222 117.761 20.3585 117.596 20.1484 117.55L11.608 115.69C11.0345 115.565 11.0345 114.747 11.608 114.622L20.1484 112.761C20.3585 112.716 20.5222 112.551 20.5667 112.341L22.3933 103.711Z" fill="#C4CBF5"/>
<path d="M208.792 37.5932C208.914 37.0155 209.738 37.0155 209.861 37.5932L210.926 42.6275C210.971 42.8378 211.135 43.0024 211.345 43.0482L216.341 44.1367C216.915 44.2616 216.915 45.0796 216.341 45.2045L211.345 46.293C211.135 46.339 210.971 46.503 210.926 46.714L209.861 51.748C209.738 52.326 208.914 52.326 208.792 51.748L207.726 46.714C207.681 46.503 207.518 46.339 207.308 46.293L202.311 45.2045C201.738 45.0796 201.738 44.2616 202.311 44.1367L207.308 43.0482C207.518 43.0024 207.681 42.8378 207.726 42.6275L208.792 37.5932Z" fill="#C4CBF5"/>
<path d="M230.82 118.306L232.494 126.211L240.286 127.909L232.494 129.606L230.82 137.512L229.147 129.606L221.354 127.909L229.147 126.211L230.82 118.306Z" fill="white"/>
<path d="M80.034 60.622C83.292 62.04 85.642 63.27 87.263 64.354C88.908 65.454 89.687 66.329 89.98 66.991C90.225 67.547 90.164 68.03 89.759 68.613C89.309 69.262 88.471 69.96 87.257 70.747C86.059 71.522 84.603 72.318 82.995 73.2C81.4 74.074 79.672 75.025 77.991 76.088C74.645 78.204 71.3499 80.844 69.5465 84.415C67.7294 88.014 67.7557 92.185 68.2893 96.058C68.5576 98.005 68.9598 99.916 69.3453 101.678C69.7346 103.457 70.1004 105.06 70.3169 106.459C70.5364 107.878 70.5767 108.945 70.3998 109.681C70.3154 110.032 70.1917 110.265 70.0501 110.423C69.9142 110.575 69.718 110.708 69.404 110.793C68.7245 110.978 67.5532 110.925 65.6219 110.345C63.734 109.778 61.2529 108.748 58.0235 107.15C49.2583 101.012 43.1935 94.748 40.1224 88.468C37.0693 82.225 36.9518 75.931 40.1606 69.576C46.5495 56.925 64.2905 52.674 79.983 60.598L80.008 60.61L80.034 60.622Z" fill="#DDE2FF" stroke="#C4CBF5" stroke-width="2"/>
<path d="M4.0926 56.399L4.7459 56.345C17.8094 55.264 30.884 58.295 42.1399 65.012" stroke="#C4CBF5" stroke-width="2"/>
<path d="M0.117901 63.858L1.2073 63.764C14.1197 62.654 27.0588 65.575 38.2421 72.124" stroke="#C4CBF5" stroke-width="2"/>
<path d="M95.723 64.837C105.449 70.384 109.38 76.082 110.136 82.036C110.904 88.094 108.439 94.694 104.673 102.153C100.922 109.581 96.673 115.62 91.131 118.664C85.678 121.66 78.758 121.864 69.3543 117.116C57.266 111.012 53.0703 94.385 60.429 79.812C67.7829 65.249 83.638 58.753 95.723 64.837Z" fill="#DDE2FF" stroke="#C4CBF5" stroke-width="2"/>
<path d="M99.7514 67.4194C89.2147 62.7141 75.4237 70.6542 68.9485 85.1542C62.4733 99.6542 65.7658 115.223 76.3026 119.929C86.8393 124.634 100.63 116.694 107.105 102.194C113.581 87.6938 110.288 72.1248 99.7514 67.4194Z" fill="white"/>
<path d="M101.239 67.622C106.429 70.243 109.77 75.485 110.89 81.977C112.01 88.469 110.889 96.142 107.208 103.433C103.526 110.724 98.016 116.181 92.127 119.133C86.238 122.086 80.036 122.51 74.846 119.889C69.6547 117.267 66.3145 112.025 65.1943 105.533C64.0741 99.041 65.1948 91.368 68.8763 84.077C72.558 76.786 78.068 71.329 83.957 68.377C89.846 65.424 96.048 65 101.239 67.622Z" fill="white" stroke="#C4CBF5" stroke-width="2"/>
<path d="M92.629 90.709C90.748 89.759 89.944 87.224 91.089 84.956C92.234 82.689 94.751 81.831 96.633 82.781C98.513 83.731 99.317 86.266 98.172 88.533C97.027 90.8 94.511 91.658 92.629 90.709Z" fill="#C4CBF5" stroke="#C4CBF5" stroke-width="2"/>
<path d="M84.526 106.753C82.645 105.803 81.841 103.268 82.986 101.001C84.131 98.734 86.648 97.876 88.529 98.826C90.41 99.776 91.213 102.31 90.068 104.577C88.924 106.844 86.407 107.703 84.526 106.753Z" fill="#C4CBF5" stroke="#C4CBF5" stroke-width="2"/>
<path d="M175.182 155.168C172.32 157.107 170.053 158.339 168.258 159.006C166.453 159.677 165.231 159.739 164.389 159.492C163.589 159.257 162.968 158.693 162.461 157.701C161.941 156.683 161.58 155.286 161.308 153.54C161.037 151.803 160.864 149.807 160.677 147.616C160.491 145.438 160.292 143.082 159.968 140.68C159.32 135.881 158.163 130.803 155.533 126.388C152.905 121.975 148.995 118.51 145.088 115.619C143.132 114.171 141.158 112.853 139.332 111.633C137.497 110.405 135.824 109.284 134.426 108.203C133.021 107.117 131.963 106.123 131.314 105.174C130.68 104.247 130.483 103.435 130.655 102.633C130.837 101.792 131.467 100.768 132.912 99.534C134.349 98.307 136.507 96.945 139.571 95.411L139.604 95.395L139.635 95.376C159.78 83.377 183.879 87.341 193.624 103.7C203.368 120.06 195.375 143.138 175.231 155.137L175.206 155.152L175.182 155.168Z" fill="#DDE2FF" stroke="#C4CBF5" stroke-width="2"/>
<path d="M233.766 72.849L233.362 73.619C225.277 89.019 212.58 101.506 197.047 109.333" stroke="#C4CBF5" stroke-width="2"/>
<path d="M228.24 63.089L227.57 64.376C219.626 79.627 207.148 92.041 191.855 99.906" stroke="#C4CBF5" stroke-width="2"/>
<path d="M110.802 108.247L116.734 104.713L121.588 101.822" stroke="#C4CBF5" stroke-width="2"/>
<path d="M159.268 169.76C146.291 177.017 137 177.404 129.616 173.886C122.13 170.32 116.346 162.636 110.672 153.11C105.024 143.627 101.093 133.805 101.571 124.972C101.808 120.579 103.136 116.425 105.901 112.651C108.672 108.87 112.922 105.42 119.075 102.504L119.117 102.483L119.158 102.459C134.792 93.147 156.585 100.398 167.737 119.12C178.884 137.835 174.888 160.442 159.268 169.76Z" fill="#DDE2FF" stroke="#C4CBF5" stroke-width="2"/>
<path d="M152.241 173.947C145.502 177.961 137.142 177.958 129.003 174.564C120.864 171.169 113.015 164.403 107.437 155.038C101.859 145.673 99.647 135.549 100.539 126.776C101.431 118.003 105.409 110.649 112.148 106.636C118.886 102.622 127.247 102.626 135.386 106.02C143.525 109.414 151.373 116.18 156.952 125.545C162.53 134.91 164.742 145.034 163.85 153.807C162.958 162.58 158.98 169.934 152.241 173.947Z" fill="white" stroke="#C4CBF5" stroke-width="2"/>
<path d="M139.598 153.536L107.057 172.919C104.708 174.318 101.669 173.548 100.27 171.199C98.871 168.85 99.641 165.811 101.99 164.412L134.531 145.03C136.88 143.63 139.919 144.4 141.318 146.749C142.717 149.098 141.947 152.137 139.598 153.536Z" fill="#F1F3FF" stroke="#C4CBF5" stroke-width="2"/>
<path d="M125.937 132.772L93.396 152.154C91.047 153.554 88.008 152.783 86.609 150.434C85.21 148.085 85.98 145.047 88.329 143.648L120.87 124.265C123.219 122.866 126.258 123.636 127.657 125.984C129.056 128.334 128.286 131.373 125.937 132.772Z" fill="#F1F3FF" stroke="#C4CBF5" stroke-width="2"/>
</g>
<defs>
<clipPath id="clip0_2_111">
<rect width="241" height="196" fill="white"/>
</clipPath>
</defs>
</svg>
