<svg width="237" height="232" viewBox="0 0 237 232" fill="none" xmlns="http://www.w3.org/2000/svg">
<g clip-path="url(#clip0_2_175)">
<path d="M129.898 223.796C182.861 223.796 225.796 180.861 225.796 127.898C225.796 74.9349 182.861 31.9998 129.898 31.9998C76.9349 31.9998 33.9998 74.9349 33.9998 127.898C33.9998 180.861 76.9349 223.796 129.898 223.796Z" fill="#3E4450"/>
<path d="M22.2819 123.556C34.3532 123.556 44.139 113.77 44.139 101.699C44.139 89.6277 34.3532 79.8419 22.2819 79.8419C10.2106 79.8419 0.424805 89.6277 0.424805 101.699C0.424805 113.77 10.2106 123.556 22.2819 123.556Z" fill="#3E4450"/>
<path d="M64.357 27.9318C71.9016 27.9318 78.0177 21.8157 78.0177 14.2711C78.0177 6.7265 71.9016 0.610397 64.357 0.610397C56.8124 0.610397 50.6963 6.7265 50.6963 14.2711C50.6963 21.8157 56.8124 27.9318 64.357 27.9318Z" fill="#3E4450"/>
<path d="M214.898 42.6858C220.783 42.6858 225.553 37.9152 225.553 32.0304C225.553 26.1456 220.783 21.375 214.898 21.375C209.013 21.375 204.243 26.1456 204.243 32.0304C204.243 37.9152 209.013 42.6858 214.898 42.6858Z" fill="#3E4450"/>
<path d="M211.62 197.325C214.487 197.325 216.811 195.001 216.811 192.134C216.811 189.267 214.487 186.943 211.62 186.943C208.753 186.943 206.429 189.267 206.429 192.134C206.429 195.001 208.753 197.325 211.62 197.325Z" fill="#3E4450"/>
<path d="M154.652 38.1448C154.245 38.0582 154.245 37.4768 154.652 37.3902L160.81 36.0806C160.959 36.0491 161.075 35.9334 161.107 35.7851L162.433 29.6702C162.521 29.2649 163.099 29.2649 163.187 29.6702L164.513 35.7851C164.545 35.9334 164.661 36.0491 164.81 36.0806L170.968 37.3902C171.375 37.4768 171.375 38.0582 170.968 38.1448L164.81 39.4544C164.661 39.4859 164.545 39.6016 164.513 39.7499L163.187 45.8648C163.099 46.2701 162.521 46.2701 162.433 45.8648L161.107 39.7499C161.075 39.6016 160.959 39.4859 160.81 39.4544L154.652 38.1448Z" fill="#6D7381"/>
<path d="M16.6599 141.099C16.7822 140.521 17.6068 140.521 17.7291 141.099L19.5557 149.729C19.6002 149.939 19.7639 150.104 19.974 150.149L28.5144 152.01C29.0879 152.135 29.0879 152.953 28.5144 153.078L19.974 154.938C19.7639 154.984 19.6002 155.149 19.5557 155.359L17.7291 163.989C17.6068 164.566 16.7822 164.566 16.6599 163.989L14.8333 155.359C14.7888 155.149 14.6251 154.984 14.415 154.938L5.8746 153.078C5.3011 152.953 5.3011 152.135 5.8746 152.01L14.415 150.149C14.6251 150.104 14.7888 149.939 14.8333 149.729L16.6599 141.099Z" fill="#6D7381"/>
<path d="M154.889 216.424C155.011 215.846 155.836 215.846 155.958 216.424L157.024 221.458C157.068 221.668 157.232 221.833 157.442 221.879L162.439 222.967C163.012 223.092 163.012 223.91 162.439 224.035L157.442 225.124C157.232 225.169 157.068 225.334 157.024 225.544L155.958 230.579C155.836 231.156 155.011 231.156 154.889 230.579L153.824 225.544C153.779 225.334 153.615 225.169 153.405 225.124L148.409 224.035C147.835 223.91 147.835 223.092 148.409 222.967L153.405 221.879C153.615 221.833 153.779 221.668 153.824 221.458L154.889 216.424Z" fill="#6D7381"/>
<path d="M232.383 70.191L165.507 57.3756C162.543 56.8076 159.68 58.75 159.112 61.7139L141.978 151.132C141.655 152.818 142.143 154.558 143.296 155.83L174.374 190.11C176.178 192.1 179.162 192.484 181.411 191.014L217.632 167.343C218.873 166.533 219.731 165.253 220.01 163.797L236.722 76.586C237.29 73.622 235.347 70.759 232.383 70.191Z" fill="#6D7381"/>
<path d="M185.06 88.862C180.112 87.805 175.251 90.919 174.205 95.818C173.36 99.773 172.922 109.495 186.33 122.281C186.57 122.508 186.869 122.665 187.192 122.734C187.516 122.803 187.853 122.782 188.165 122.673C205.627 116.482 209.2 107.43 210.045 103.475C211.092 98.576 207.928 93.747 202.98 92.69C198.032 91.633 192.871 96.152 192.871 96.152C192.871 96.152 190.008 89.919 185.06 88.862Z" fill="#2E333D"/>
<path d="M179.654 174.923C183.577 174.923 186.758 171.742 186.758 167.819C186.758 163.896 183.577 160.715 179.654 160.715C175.731 160.715 172.55 163.896 172.55 167.819C172.55 171.742 175.731 174.923 179.654 174.923Z" fill="#3E4450"/>
<path d="M106.903 28.676L107.219 28.5709C110.489 27.5707 114.005 29.3004 115.183 32.5519L156.542 146.74C157.102 148.285 157.051 149.982 156.407 151.485L156.27 151.783L129.783 205.907C128.429 208.673 125.322 210.087 122.366 209.326L122.081 209.245L60.5014 190.364C58.5596 189.768 57.0102 188.295 56.3184 186.386L13.8883 69.241C12.6728 65.885 14.4082 62.1783 17.7645 60.9624L106.903 28.676Z" fill="#3E4450" stroke="#6D7381" stroke-width="2"/>
<path d="M87.359 72.859C93.977 70.262 101.409 73.472 103.971 80.001C105.038 82.72 106.329 87.585 105.288 94.525C104.278 101.256 101.064 110.002 93.223 120.686L92.452 121.721C92.27 121.961 92.025 122.147 91.745 122.257C91.464 122.367 91.159 122.397 90.862 122.346C77.115 119.883 68.445 115.52 62.9558 111.137C57.4722 106.757 55.1091 102.312 54.0421 99.593C51.4803 93.065 54.7465 85.656 61.3647 83.059C64.5947 81.791 68.305 82.376 71.335 83.373C72.83 83.866 74.113 84.444 75.023 84.899C75.476 85.126 75.835 85.322 76.077 85.459C76.199 85.527 76.291 85.582 76.352 85.618C76.381 85.635 76.404 85.648 76.417 85.657C76.424 85.661 76.43 85.665 76.433 85.666L76.434 85.667C76.731 85.851 77.097 85.885 77.422 85.758C77.707 85.646 77.93 85.422 78.043 85.143L78.084 85.02L78.086 85.018C78.086 85.015 78.088 85.008 78.09 85C78.095 84.985 78.102 84.96 78.112 84.927C78.132 84.86 78.162 84.757 78.205 84.624C78.289 84.359 78.418 83.972 78.596 83.497C78.953 82.544 79.502 81.247 80.264 79.869C81.806 77.078 84.129 74.126 87.359 72.859Z" fill="#6D7381" stroke="#6D7381" stroke-width="2.21178" stroke-linecap="round" stroke-linejoin="round"/>
<path d="M113.262 187.49C118.241 187.49 122.278 183.453 122.278 178.474C122.278 173.495 118.241 169.458 113.262 169.458C108.283 169.458 104.246 173.495 104.246 178.474C104.246 183.453 108.283 187.49 113.262 187.49Z" fill="#6D7381"/>
</g>
<defs>
<clipPath id="clip0_2_175">
<rect width="237" height="232" fill="white"/>
</clipPath>
</defs>
</svg>
