<svg width="306" height="306" viewBox="0 0 306 306" fill="none" xmlns="http://www.w3.org/2000/svg">
<circle cx="151.634" cy="162.562" r="95.8982" fill="#F1F3FF"/>
<circle cx="61.7461" cy="97.8108" r="6.01071" fill="#F1F3FF"/>
<circle cx="219.937" cy="58.7408" r="11.2018" fill="#F1F3FF"/>
<circle cx="63.6583" cy="224.309" r="10.6554" fill="#F1F3FF"/>
<circle cx="254.362" cy="213.927" r="10.6554" fill="#F1F3FF"/>
<circle cx="233.597" cy="225.948" r="5.19107" fill="#F1F3FF"/>
<path d="M259.366 181.048L261.04 188.954L268.832 190.651L261.04 192.349L259.366 200.254L257.693 192.349L249.9 190.651L257.693 188.954L259.366 181.048Z" fill="white"/>
<path d="M249.359 100.337C249.481 99.759 250.306 99.759 250.428 100.337L251.494 105.371C251.538 105.581 251.702 105.746 251.912 105.792L256.909 106.88C257.482 107.005 257.482 107.823 256.909 107.948L251.912 109.037C251.702 109.082 251.538 109.247 251.494 109.457L250.428 114.492C250.306 115.069 249.481 115.069 249.359 114.492L248.293 109.457C248.249 109.247 248.085 109.082 247.875 109.037L242.879 107.948C242.305 107.823 242.305 107.005 242.879 106.88L247.875 105.792C248.085 105.746 248.249 105.581 248.293 105.371L249.359 100.337Z" fill="#C4CBF5"/>
<path d="M50.9392 166.454C51.0615 165.876 51.8861 165.876 52.0084 166.454L53.835 175.083C53.8795 175.293 54.0432 175.458 54.2533 175.504L62.7937 177.364C63.3672 177.489 63.3672 178.307 62.7937 178.432L54.2533 180.293C54.0432 180.338 53.8795 180.503 53.835 180.713L52.0084 189.343C51.8861 189.921 51.0615 189.921 50.9392 189.343L49.1126 180.713C49.0681 180.503 48.9044 180.338 48.6943 180.293L40.1539 178.432C39.5804 178.307 39.5804 177.489 40.1539 177.364L48.6943 175.504C48.9044 175.458 49.0681 175.293 49.1126 175.083L50.9392 166.454Z" fill="#C4CBF5"/>
<path d="M84.9824 74.6077C84.6656 74.5403 84.6656 74.0882 84.9824 74.0208L89.7723 73.0022C89.8877 72.9777 89.978 72.8877 90.003 72.7724L91.0344 68.0163C91.1027 67.7011 91.5524 67.7011 91.6207 68.0163L92.652 72.7724C92.6771 72.8877 92.7674 72.9777 92.8828 73.0022L97.6726 74.0208C97.9894 74.0882 97.9894 74.5403 97.6726 74.6077L92.8828 75.6262C92.7674 75.6508 92.6771 75.7408 92.652 75.8561L91.6207 80.6122C91.5524 80.9274 91.1027 80.9274 91.0344 80.6122L90.003 75.8561C89.978 75.7408 89.8877 75.6508 89.7723 75.6262L84.9824 74.6077Z" fill="#C4CBF5"/>
<circle cx="171.577" cy="127.319" r="60.7464" fill="#DDE2FF" stroke="#C4CBF5" stroke-width="2"/>
<circle cx="171.578" cy="127.319" r="50.9107" fill="#F1F3FF" stroke="#C4CBF5" stroke-width="2"/>
<path d="M92.4785 239.679L125.26 194.149L126.717 193.056L129.995 192.328H134.73L137.28 194.149L139.83 195.241L142.015 197.791L143.836 201.798L115.426 255.341L112.147 257.162H108.141L102.677 255.341L98.3064 253.52L94.2997 248.056L92.4785 245.871V239.679Z" fill="#C4CBF5"/>
<path d="M150.029 184.314L141.719 197.791" stroke="#C4CBF5" stroke-width="2"/>
<path d="M140.261 179.943L132.248 191.963" stroke="#C4CBF5" stroke-width="2"/>
<path d="M127.446 192.328L92.1143 240.771" stroke="#C4CBF5" stroke-width="2"/>
<path d="M143.473 201.069L115.062 256.069" stroke="#C4CBF5" stroke-width="2"/>
<path d="M126.718 193.056L127.317 192.722C128.629 191.992 130.136 191.69 131.628 191.859V191.859C132.237 191.928 132.835 192.075 133.407 192.296L134.434 192.692L134.78 192.807C136.708 193.45 138.46 194.533 139.897 195.97V195.97L141.027 197.1C141.486 197.559 141.887 198.073 142.222 198.63V198.63C142.613 199.281 142.908 199.986 143.099 200.721L143.473 202.162" stroke="#C4CBF5" stroke-width="2"/>
<path d="M115.79 255.341L114.239 256.038C112.736 256.714 111.115 257.089 109.468 257.141V257.141C108.189 257.181 106.911 257.026 105.679 256.681L104.634 256.388L104.284 256.269C101.187 255.219 98.3671 253.484 96.0331 251.194V251.194L94.6838 249.87C93.6288 248.834 92.8381 247.561 92.3785 246.156V246.156C91.8066 244.409 91.7703 242.53 92.2741 240.762L92.479 240.042" stroke="#C4CBF5" stroke-width="2"/>
</svg>
