<svg width="230" height="211" viewBox="0 0 230 211" fill="none" xmlns="http://www.w3.org/2000/svg">
<g clip-path="url(#clip0_2_138)">
<path d="M112.898 209.296C165.033 209.296 207.296 167.033 207.296 114.898C207.296 62.7633 165.033 20.4998 112.898 20.4998C60.7633 20.4998 18.4998 62.7633 18.4998 114.898C18.4998 167.033 60.7633 209.296 112.898 209.296Z" fill="#3E4450" stroke="#949BAB" stroke-width="3"/>
<path d="M22.7461 55.8215C26.0657 55.8215 28.7568 53.1304 28.7568 49.8108C28.7568 46.4912 26.0657 43.8001 22.7461 43.8001C19.4265 43.8001 16.7354 46.4912 16.7354 49.8108C16.7354 53.1304 19.4265 55.8215 22.7461 55.8215Z" fill="#3B414E"/>
<path d="M183.202 22.4036C189.389 22.4036 194.404 17.3884 194.404 11.2018C194.404 5.01522 189.389 0 183.202 0C177.015 0 172 5.01522 172 11.2018C172 17.3884 177.015 22.4036 183.202 22.4036Z" fill="#3B414E"/>
<path d="M24.6583 186.964C30.5431 186.964 35.3137 182.194 35.3137 176.309C35.3137 170.424 30.5431 165.654 24.6583 165.654C18.7735 165.654 14.0029 170.424 14.0029 176.309C14.0029 182.194 18.7735 186.964 24.6583 186.964Z" fill="#3B414E"/>
<path d="M215.362 176.582C221.247 176.582 226.017 171.812 226.017 165.927C226.017 160.042 221.247 155.272 215.362 155.272C209.477 155.272 204.707 160.042 204.707 165.927C204.707 171.812 209.477 176.582 215.362 176.582Z" fill="#3B414E"/>
<path d="M194.597 183.139C197.464 183.139 199.788 180.815 199.788 177.948C199.788 175.081 197.464 172.757 194.597 172.757C191.73 172.757 189.406 175.081 189.406 177.948C189.406 180.815 191.73 183.139 194.597 183.139Z" fill="#3B414E"/>
<path d="M220.366 133.048L222.04 140.954L229.832 142.651L222.04 144.349L220.366 152.254L218.693 144.349L210.9 142.651L218.693 140.954L220.366 133.048Z" fill="white"/>
<path d="M209.931 52.526C210.053 51.9479 210.878 51.9479 211 52.526L212.066 57.56C212.11 57.77 212.274 57.935 212.484 57.981L217.481 59.069C218.054 59.194 218.054 60.012 217.481 60.137L212.484 61.225C212.274 61.271 212.11 61.436 212.066 61.646L211 66.68C210.878 67.258 210.053 67.258 209.931 66.68L208.866 61.646C208.821 61.436 208.657 61.271 208.447 61.225L203.451 60.137C202.877 60.012 202.877 59.194 203.451 59.069L208.447 57.981C208.657 57.935 208.821 57.77 208.866 57.56L209.931 52.526Z" fill="#949BAB"/>
<path d="M11.9392 118.454C12.0615 117.876 12.8861 117.876 13.0084 118.454L14.835 127.083C14.8795 127.293 15.0432 127.458 15.2533 127.504L23.7937 129.364C24.3672 129.489 24.3672 130.307 23.7937 130.432L15.2533 132.293C15.0432 132.338 14.8795 132.503 14.835 132.713L13.0084 141.343C12.8861 141.921 12.0615 141.921 11.9392 141.343L10.1126 132.713C10.0681 132.503 9.9044 132.338 9.6943 132.293L1.1539 130.432C0.580395 130.307 0.580395 129.489 1.1539 129.364L9.6943 127.504C9.9044 127.458 10.0681 127.293 10.1126 127.083L11.9392 118.454Z" fill="#949BAB"/>
<path d="M45.9824 26.6077C45.6656 26.5403 45.6656 26.0882 45.9824 26.0208L50.7723 25.0022C50.8877 24.9777 50.978 24.8877 51.003 24.7724L52.0344 20.0163C52.1027 19.7011 52.5524 19.7011 52.6207 20.0163L53.652 24.7724C53.6771 24.8877 53.7674 24.9777 53.8828 25.0022L58.6726 26.0208C58.9894 26.0882 58.9894 26.5403 58.6726 26.6077L53.8828 27.6262C53.7674 27.6508 53.6771 27.7408 53.652 27.8561L52.6207 32.6122C52.5524 32.9274 52.1027 32.9274 52.0344 32.6122L51.003 27.8561C50.978 27.7408 50.8877 27.6508 50.7723 27.6262L45.9824 26.6077Z" fill="#949BAB"/>
<path d="M132.325 140.493C165.874 140.493 193.071 113.296 193.071 79.747C193.071 46.1977 165.874 19.0006 132.325 19.0006C98.7757 19.0006 71.5786 46.1977 71.5786 79.747C71.5786 113.296 98.7757 140.493 132.325 140.493Z" fill="#3E4450" stroke="#6D7381" stroke-width="2"/>
<path d="M131.911 130.822C160.028 130.822 182.822 108.028 182.822 79.911C182.822 51.7938 160.028 29.0003 131.911 29.0003C103.794 29.0003 81.0003 51.7938 81.0003 79.911C81.0003 108.028 103.794 130.822 131.911 130.822Z" fill="#6D7381" stroke="#6D7381" stroke-width="2"/>
<path d="M53 192.351L85.782 146.821L87.239 145.728L90.517 145H95.252L97.801 146.821L100.351 147.914L102.537 150.464L104.358 154.47L75.947 208.013L72.669 209.835H68.662L63.199 208.013L58.8279 206.192L54.8212 200.729L53 198.543V192.351Z" fill="#2E333D"/>
<path d="M110.776 136.742L102.466 150.219" stroke="#6D7381" stroke-width="2"/>
<path d="M101.008 132.371L92.995 144.39" stroke="#6D7381" stroke-width="2"/>
<path d="M88.193 144.755L52.8613 193.199" stroke="#6D7381" stroke-width="2"/>
<path d="M103.654 152L75.243 207" stroke="#6D7381" stroke-width="2"/>
<path d="M87.465 145.484L88.064 145.15C89.376 144.42 90.883 144.118 92.375 144.287C92.984 144.356 93.582 144.503 94.154 144.723L95.181 145.12L95.527 145.235C97.455 145.878 99.207 146.961 100.644 148.398L101.774 149.527C102.233 149.987 102.635 150.501 102.969 151.058C103.36 151.709 103.655 152.414 103.846 153.149L104.22 154.59" stroke="#6D7381" stroke-width="2"/>
<path d="M76.537 207.936L74.986 208.634C73.483 209.31 71.862 209.684 70.215 209.736C68.936 209.776 67.658 209.621 66.426 209.276L65.381 208.983L65.031 208.865C61.934 207.814 59.1141 206.079 56.7802 203.789L55.4308 202.465C54.3759 201.429 53.5852 200.156 53.1255 198.751C52.5537 197.004 52.5174 195.125 53.0211 193.357L53.2261 192.638" stroke="#6D7381" stroke-width="2"/>
</g>
<defs>
<clipPath id="clip0_2_138">
<rect width="230" height="211" fill="white"/>
</clipPath>
</defs>
</svg>
