<svg width="306" height="306" viewBox="0 0 306 306" fill="none" xmlns="http://www.w3.org/2000/svg">
<circle cx="151.898" cy="162.898" r="94.3982" fill="#3E4450" stroke="#949BAB" stroke-width="3"/>
<circle cx="61.7461" cy="97.8108" r="6.01071" fill="#3B414E"/>
<circle cx="222.202" cy="59.2018" r="11.2018" fill="#3B414E"/>
<circle cx="63.6583" cy="224.309" r="10.6554" fill="#3B414E"/>
<circle cx="254.362" cy="213.927" r="10.6554" fill="#3B414E"/>
<circle cx="233.597" cy="225.948" r="5.19107" fill="#3B414E"/>
<path d="M259.366 181.048L261.04 188.954L268.832 190.651L261.04 192.349L259.366 200.254L257.693 192.349L249.9 190.651L257.693 188.954L259.366 181.048Z" fill="white"/>
<path d="M248.931 100.526C249.053 99.9479 249.878 99.9479 250 100.526L251.066 105.56C251.11 105.77 251.274 105.935 251.484 105.981L256.481 107.069C257.054 107.194 257.054 108.012 256.481 108.137L251.484 109.225C251.274 109.271 251.11 109.436 251.066 109.646L250 114.68C249.878 115.258 249.053 115.258 248.931 114.68L247.866 109.646C247.821 109.436 247.657 109.271 247.447 109.225L242.451 108.137C241.877 108.012 241.877 107.194 242.451 107.069L247.447 105.981C247.657 105.935 247.821 105.77 247.866 105.56L248.931 100.526Z" fill="#949BAB"/>
<path d="M50.9392 166.454C51.0615 165.876 51.8861 165.876 52.0084 166.454L53.835 175.083C53.8795 175.293 54.0432 175.458 54.2533 175.504L62.7937 177.364C63.3672 177.489 63.3672 178.307 62.7937 178.432L54.2533 180.293C54.0432 180.338 53.8795 180.503 53.835 180.713L52.0084 189.343C51.8861 189.921 51.0615 189.921 50.9392 189.343L49.1126 180.713C49.0681 180.503 48.9044 180.338 48.6943 180.293L40.1539 178.432C39.5804 178.307 39.5804 177.489 40.1539 177.364L48.6943 175.504C48.9044 175.458 49.0681 175.293 49.1126 175.083L50.9392 166.454Z" fill="#949BAB"/>
<path d="M84.9824 74.6077C84.6656 74.5403 84.6656 74.0882 84.9824 74.0208L89.7723 73.0022C89.8877 72.9777 89.978 72.8877 90.003 72.7724L91.0344 68.0163C91.1027 67.7011 91.5524 67.7011 91.6207 68.0163L92.652 72.7724C92.6771 72.8877 92.7674 72.9777 92.8828 73.0022L97.6726 74.0208C97.9894 74.0882 97.9894 74.5403 97.6726 74.6077L92.8828 75.6262C92.7674 75.6508 92.6771 75.7408 92.652 75.8561L91.6207 80.6122C91.5524 80.9274 91.1027 80.9274 91.0344 80.6122L90.003 75.8561C89.978 75.7408 89.8877 75.6508 89.7723 75.6262L84.9824 74.6077Z" fill="#949BAB"/>
<circle cx="171.325" cy="127.747" r="60.7464" fill="#3E4450" stroke="#6D7381" stroke-width="2"/>
<circle cx="170.911" cy="127.911" r="50.9107" fill="#6D7381" stroke="#6D7381" stroke-width="2"/>
<path d="M92 240.351L124.782 194.821L126.239 193.728L129.517 193H134.252L136.801 194.821L139.351 195.914L141.537 198.464L143.358 202.47L114.947 256.013L111.669 257.835H107.662L102.199 256.013L97.8279 254.192L93.8212 248.729L92 246.543V240.351Z" fill="#2E333D"/>
<path d="M149.776 184.742L141.466 198.219" stroke="#6D7381" stroke-width="2"/>
<path d="M140.008 180.371L131.995 192.39" stroke="#6D7381" stroke-width="2"/>
<path d="M127.193 192.755L91.8613 241.199" stroke="#6D7381" stroke-width="2"/>
<path d="M142.654 200L114.243 255" stroke="#6D7381" stroke-width="2"/>
<path d="M126.465 193.484L127.064 193.15C128.376 192.42 129.883 192.118 131.375 192.287V192.287C131.984 192.356 132.582 192.503 133.154 192.723L134.181 193.12L134.527 193.235C136.455 193.878 138.207 194.961 139.644 196.398V196.398L140.774 197.527C141.233 197.987 141.635 198.501 141.969 199.058V199.058C142.36 199.709 142.655 200.414 142.846 201.149L143.22 202.59" stroke="#6D7381" stroke-width="2"/>
<path d="M115.537 255.936L113.986 256.634C112.483 257.31 110.862 257.684 109.215 257.736V257.736C107.936 257.776 106.658 257.621 105.426 257.276L104.381 256.983L104.031 256.865C100.934 255.814 98.1141 254.079 95.7802 251.789V251.789L94.4308 250.465C93.3759 249.429 92.5852 248.156 92.1255 246.751V246.751C91.5537 245.004 91.5174 243.125 92.0211 241.357L92.2261 240.638" stroke="#6D7381" stroke-width="2"/>
</svg>
