<svg width="230" height="212" viewBox="0 0 230 212" fill="none" xmlns="http://www.w3.org/2000/svg">
<g clip-path="url(#clip0_2_190)">
<path d="M112.634 211.46C165.597 211.46 208.532 168.525 208.532 115.562C208.532 62.5989 165.597 19.6638 112.634 19.6638C59.6709 19.6638 16.7358 62.5989 16.7358 115.562C16.7358 168.525 59.6709 211.46 112.634 211.46Z" fill="#F1F3FF"/>
<path d="M22.7461 56.8215C26.0657 56.8215 28.7568 54.1304 28.7568 50.8108C28.7568 47.4912 26.0657 44.8001 22.7461 44.8001C19.4265 44.8001 16.7354 47.4912 16.7354 50.8108C16.7354 54.1304 19.4265 56.8215 22.7461 56.8215Z" fill="#F1F3FF"/>
<path d="M180.937 22.9426C187.124 22.9426 192.139 17.9274 192.139 11.7408C192.139 5.55422 187.124 0.539001 180.937 0.539001C174.75 0.539001 169.735 5.55422 169.735 11.7408C169.735 17.9274 174.75 22.9426 180.937 22.9426Z" fill="#F1F3FF"/>
<path d="M24.6583 187.964C30.5431 187.964 35.3137 183.194 35.3137 177.309C35.3137 171.424 30.5431 166.654 24.6583 166.654C18.7735 166.654 14.0029 171.424 14.0029 177.309C14.0029 183.194 18.7735 187.964 24.6583 187.964Z" fill="#F1F3FF"/>
<path d="M215.362 177.582C221.247 177.582 226.017 172.812 226.017 166.927C226.017 161.042 221.247 156.272 215.362 156.272C209.477 156.272 204.707 161.042 204.707 166.927C204.707 172.812 209.477 177.582 215.362 177.582Z" fill="#F1F3FF"/>
<path d="M194.597 184.139C197.464 184.139 199.788 181.815 199.788 178.948C199.788 176.081 197.464 173.757 194.597 173.757C191.73 173.757 189.406 176.081 189.406 178.948C189.406 181.815 191.73 184.139 194.597 184.139Z" fill="#F1F3FF"/>
<path d="M220.366 134.048L222.04 141.954L229.832 143.651L222.04 145.349L220.366 153.254L218.693 145.349L210.9 143.651L218.693 141.954L220.366 134.048Z" fill="white"/>
<path d="M210.359 53.337C210.481 52.759 211.306 52.759 211.428 53.337L212.494 58.371C212.538 58.581 212.702 58.746 212.912 58.792L217.909 59.88C218.482 60.005 218.482 60.823 217.909 60.948L212.912 62.037C212.702 62.082 212.538 62.247 212.494 62.457L211.428 67.492C211.306 68.069 210.481 68.069 210.359 67.492L209.293 62.457C209.249 62.247 209.085 62.082 208.875 62.037L203.879 60.948C203.305 60.823 203.305 60.005 203.879 59.88L208.875 58.792C209.085 58.746 209.249 58.581 209.293 58.371L210.359 53.337Z" fill="#C4CBF5"/>
<path d="M11.9392 119.454C12.0615 118.876 12.8861 118.876 13.0084 119.454L14.835 128.083C14.8795 128.293 15.0432 128.458 15.2533 128.504L23.7937 130.364C24.3672 130.489 24.3672 131.307 23.7937 131.432L15.2533 133.293C15.0432 133.338 14.8795 133.503 14.835 133.713L13.0084 142.343C12.8861 142.921 12.0615 142.921 11.9392 142.343L10.1126 133.713C10.0681 133.503 9.9044 133.338 9.6943 133.293L1.1539 131.432C0.580395 131.307 0.580395 130.489 1.1539 130.364L9.6943 128.504C9.9044 128.458 10.0681 128.293 10.1126 128.083L11.9392 119.454Z" fill="#C4CBF5"/>
<path d="M45.9824 27.6077C45.6656 27.5403 45.6656 27.0882 45.9824 27.0208L50.7723 26.0022C50.8877 25.9777 50.978 25.8877 51.003 25.7724L52.0344 21.0163C52.1027 20.7011 52.5524 20.7011 52.6207 21.0163L53.652 25.7724C53.6771 25.8877 53.7674 25.9777 53.8828 26.0022L58.6726 27.0208C58.9894 27.0882 58.9894 27.5403 58.6726 27.6077L53.8828 28.6262C53.7674 28.6508 53.6771 28.7408 53.652 28.8561L52.6207 33.6122C52.5524 33.9274 52.1027 33.9274 52.0344 33.6122L51.003 28.8561C50.978 28.7408 50.8877 28.6508 50.7723 28.6262L45.9824 27.6077Z" fill="#C4CBF5"/>
<path d="M132.577 141.065C166.126 141.065 193.323 113.868 193.323 80.319C193.323 46.7697 166.126 19.5726 132.577 19.5726C99.0277 19.5726 71.8306 46.7697 71.8306 80.319C71.8306 113.868 99.0277 141.065 132.577 141.065Z" fill="#DDE2FF" stroke="#C4CBF5" stroke-width="2"/>
<path d="M132.578 131.23C160.695 131.23 183.489 108.436 183.489 80.319C183.489 52.2018 160.695 29.4083 132.578 29.4083C104.461 29.4083 81.6673 52.2018 81.6673 80.319C81.6673 108.436 104.461 131.23 132.578 131.23Z" fill="#F1F3FF" stroke="#C4CBF5" stroke-width="2"/>
<path d="M53.4785 192.679L86.26 147.149L87.717 146.056L90.995 145.328H95.73L98.28 147.149L100.83 148.241L103.015 150.791L104.836 154.798L76.426 208.341L73.147 210.162H69.141L63.677 208.341L59.3064 206.52L55.2997 201.056L53.4785 198.871V192.679Z" fill="#C4CBF5"/>
<path d="M111.029 137.314L102.719 150.791" stroke="#C4CBF5" stroke-width="2"/>
<path d="M101.261 132.943L93.248 144.963" stroke="#C4CBF5" stroke-width="2"/>
<path d="M88.446 145.328L53.1143 193.771" stroke="#C4CBF5" stroke-width="2"/>
<path d="M104.473 154.069L76.062 209.069" stroke="#C4CBF5" stroke-width="2"/>
<path d="M87.718 146.056L88.317 145.722C89.629 144.992 91.136 144.69 92.628 144.859C93.237 144.928 93.835 145.075 94.407 145.296L95.434 145.692L95.78 145.807C97.708 146.45 99.46 147.533 100.897 148.97L102.027 150.1C102.486 150.559 102.887 151.073 103.222 151.63C103.613 152.281 103.908 152.986 104.099 153.721L104.473 155.162" stroke="#C4CBF5" stroke-width="2"/>
<path d="M76.79 208.341L75.239 209.038C73.736 209.714 72.115 210.089 70.468 210.141C69.189 210.181 67.911 210.026 66.679 209.681L65.634 209.388L65.284 209.269C62.187 208.219 59.3671 206.484 57.0331 204.194L55.6838 202.87C54.6288 201.834 53.8381 200.561 53.3785 199.156C52.8066 197.409 52.7703 195.53 53.2741 193.762L53.479 193.042" stroke="#C4CBF5" stroke-width="2"/>
</g>
<defs>
<clipPath id="clip0_2_190">
<rect width="230" height="212" fill="white"/>
</clipPath>
</defs>
</svg>
