<svg width="230" height="207" viewBox="0 0 230 207" fill="none" xmlns="http://www.w3.org/2000/svg">
<g clip-path="url(#clip0_2_225)">
<path d="M112.635 206.468C165.598 206.468 208.533 163.533 208.533 110.57C208.533 57.6069 165.598 14.6718 112.635 14.6718C59.6719 14.6718 16.7368 57.6069 16.7368 110.57C16.7368 163.533 59.6719 206.468 112.635 206.468Z" fill="#F1F3FF"/>
<path d="M22.747 51.8287C26.0666 51.8287 28.7577 49.1376 28.7577 45.818C28.7577 42.4984 26.0666 39.8073 22.747 39.8073C19.4274 39.8073 16.7363 42.4984 16.7363 45.818C16.7363 49.1376 19.4274 51.8287 22.747 51.8287Z" fill="#F1F3FF"/>
<path d="M178.206 33.2497C184.393 33.2497 189.408 28.2345 189.408 22.0479C189.408 15.8613 184.393 10.8461 178.206 10.8461C172.019 10.8461 167.004 15.8613 167.004 22.0479C167.004 28.2345 172.019 33.2497 178.206 33.2497Z" fill="#F1F3FF"/>
<path d="M24.6593 182.971C30.5441 182.971 35.3147 178.201 35.3147 172.316C35.3147 166.431 30.5441 161.661 24.6593 161.661C18.7745 161.661 14.0039 166.431 14.0039 172.316C14.0039 178.201 18.7745 182.971 24.6593 182.971Z" fill="#F1F3FF"/>
<path d="M215.363 172.588C221.248 172.588 226.018 167.818 226.018 161.933C226.018 156.048 221.248 151.278 215.363 151.278C209.478 151.278 204.708 156.048 204.708 161.933C204.708 167.818 209.478 172.588 215.363 172.588Z" fill="#F1F3FF"/>
<path d="M194.598 179.147C197.465 179.147 199.789 176.823 199.789 173.956C199.789 171.089 197.465 168.765 194.598 168.765C191.731 168.765 189.407 171.089 189.407 173.956C189.407 176.823 191.731 179.147 194.598 179.147Z" fill="#F1F3FF"/>
<path d="M128.64 29.7185C128.323 29.6511 128.323 29.1989 128.64 29.1316L133.429 28.113C133.545 28.0885 133.635 27.9985 133.66 27.8831L134.692 23.1271C134.76 22.8118 135.21 22.8118 135.278 23.1271L136.309 27.8831C136.334 27.9985 136.425 28.0885 136.54 28.113L141.33 29.1316C141.647 29.1989 141.647 29.6511 141.33 29.7185L136.54 30.737C136.425 30.7616 136.334 30.8515 136.309 30.9669L135.278 35.7229C135.21 36.0382 134.76 36.0382 134.692 35.7229L133.66 30.9669C133.635 30.8515 133.545 30.7616 133.429 30.737L128.64 29.7185Z" fill="#C4CBF5"/>
<path d="M11.9402 114.461C12.0625 113.883 12.8871 113.883 13.0094 114.461L14.836 123.091C14.8805 123.301 15.0442 123.466 15.2542 123.511L23.7946 125.372C24.3681 125.497 24.3681 126.315 23.7946 126.44L15.2542 128.3C15.0442 128.346 14.8805 128.511 14.836 128.721L13.0094 137.35C12.8871 137.928 12.0625 137.928 11.9402 137.35L10.1136 128.721C10.0691 128.511 9.9054 128.346 9.6953 128.3L1.1549 126.44C0.581402 126.315 0.581402 125.497 1.1549 125.372L9.6953 123.511C9.9054 123.466 10.0691 123.301 10.1136 123.091L11.9402 114.461Z" fill="#C4CBF5"/>
<path d="M53.0503 0.774702C53.1182 0.453802 53.5763 0.453802 53.6442 0.774702L54.659 5.5687C54.6837 5.6855 54.7746 5.777 54.8913 5.8024L59.6358 6.836C59.9544 6.9054 59.9544 7.3598 59.6358 7.4292L54.8913 8.4627C54.7746 8.4882 54.6837 8.5796 54.659 8.6965L53.6442 13.4904C53.5763 13.8114 53.1182 13.8114 53.0503 13.4904L52.0356 8.6965C52.0108 8.5796 51.9199 8.4882 51.8032 8.4627L47.0588 7.4292C46.7402 7.3598 46.7402 6.9054 47.0588 6.836L51.8032 5.8024C51.9199 5.777 52.0108 5.6855 52.0356 5.5687L53.0503 0.774702Z" fill="#C4CBF5"/>
<path d="M198.338 48.343C198.461 47.765 199.285 47.765 199.408 48.343L200.473 53.377C200.518 53.588 200.681 53.752 200.891 53.798L205.888 54.887C206.461 55.011 206.461 55.829 205.888 55.954L200.891 57.043C200.681 57.089 200.518 57.253 200.473 57.464L199.408 62.498C199.285 63.076 198.461 63.076 198.338 62.498L197.273 57.464C197.228 57.253 197.065 57.089 196.855 57.043L191.858 55.954C191.285 55.829 191.285 55.011 191.858 54.887L196.855 53.798C197.065 53.752 197.228 53.588 197.273 53.377L198.338 48.343Z" fill="#C4CBF5"/>
<path d="M220.367 129.056L222.04 136.961L229.833 138.659L222.04 140.356L220.367 148.262L218.694 140.356L210.901 138.659L218.694 136.961L220.367 129.056Z" fill="white"/>
<path d="M86.739 8.3564C93.687 6.4734 100.68 10.3087 102.437 16.7915C104.194 23.2742 100.095 30.1163 93.147 31.9995C86.199 33.8826 79.206 30.0472 77.448 23.5645C75.691 17.0817 79.791 10.2395 86.739 8.3564Z" fill="#C4CBF5" stroke="#C4CBF5" stroke-width="2"/>
<path d="M85.74 20.2379L89.826 18.5851L97.446 16.5198C103.241 14.9491 109.323 14.7529 115.207 15.9468C117.393 16.3904 119.537 17.0228 121.614 17.8368L129.331 20.8616L133.936 23.3449C137.427 25.2277 140.681 27.5207 143.628 30.1753C147.019 33.2291 149.974 36.7344 152.41 40.5928L156.816 47.57L165.473 66.198L171.446 79.361L180.891 94.978L188.207 107.178L193.8 115.204C195.51 117.658 198.068 119.391 200.982 120.07C203.178 120.581 205.187 121.696 206.783 123.289L209.545 126.045C209.922 126.421 210.262 126.831 210.561 127.27C212.332 129.87 212.511 133.238 211.028 136.012L210.84 136.363C209.855 138.205 208.266 139.652 206.341 140.462L193.303 145.947L173.538 152.902L138.718 163.201L118.866 168.582L91.001 175.273L66.135 180.415L52.3265 182.277C49.9443 182.598 47.5519 181.763 45.8863 180.03C44.377 178.459 43.6212 176.313 43.8137 174.143L44.0389 171.604C44.2698 169.002 45.5583 166.608 47.6034 164.983C49.6151 163.383 50.8962 161.04 51.1562 158.483L52.416 146.095V129.8L50.3506 107.388L49.2531 91.506L48.68 84.717C48.3373 80.657 48.3259 76.576 48.6457 72.514L48.7952 70.615C49.1561 66.032 50.0529 61.507 51.467 57.132C52.7341 53.213 54.4091 49.438 56.4647 45.868L57.0591 44.836C59.0484 41.3813 61.403 38.1508 64.083 35.1999C66.842 32.1625 69.928 29.4397 73.286 27.0813L73.706 26.7862C77.455 24.1528 81.492 21.9559 85.74 20.2379Z" fill="#DDE2FF"/>
<path d="M85.735 20.2202L89.821 18.5674L97.441 16.5021C103.236 14.9314 109.318 14.7352 115.202 15.9291C117.389 16.3727 119.532 17.0051 121.609 17.8191L129.326 20.8439L133.931 23.3272C137.422 25.21 140.676 27.503 143.623 30.1576C147.014 33.2115 149.969 36.7167 152.405 40.5751L156.811 47.552L165.468 66.18L171.441 79.343L180.886 94.961L188.202 107.16L193.172 113.961C195.365 116.962 198.587 119.048 202.222 119.821L202.554 119.891C204.877 120.385 207.034 121.471 208.816 123.043L209.858 123.963C211.27 125.208 212.271 126.852 212.73 128.677C213.19 130.504 213.086 132.428 212.43 134.194L212.384 134.318C212.145 134.962 211.839 135.579 211.471 136.158L211.282 136.455C210.061 138.375 208.359 139.942 206.347 141.003L202.935 142.8L196.451 146.215L178.272 154.411L165.977 159.329L155.322 163.427L146.306 166.433L137.017 169.711L129.093 171.897L123.629 173.263L108.875 176.269L94.942 179.001L68.713 182.77L60.6952 183.657C59.1241 183.831 57.5382 183.826 55.9682 183.642L51.925 183.168C49.731 182.911 47.6945 181.899 46.1639 180.306C44.4583 178.531 43.5058 176.165 43.5058 173.704V172.841C43.5058 172.213 43.5565 171.585 43.6575 170.965L43.715 170.613C44.1612 167.873 45.3086 165.295 47.0458 163.13L48.2111 161.678C51.7759 157.235 53.5786 151.634 53.2747 145.946L52.4111 129.782L50.3457 107.371L49.2482 91.488L48.6752 84.699C48.3325 80.639 48.321 76.558 48.6408 72.496L48.7904 70.597C49.1513 66.014 50.048 61.489 51.4621 57.115C52.7292 53.195 54.4043 49.42 56.4598 45.85L57.0542 44.818C59.0435 41.3636 61.398 38.1331 64.078 35.1822C66.837 32.1448 69.923 29.422 73.281 27.0636L73.701 26.7685C77.45 24.1351 81.488 21.9382 85.735 20.2202Z" fill="#F1F3FF" stroke="#C4CBF5" stroke-width="2"/>
<path d="M130.554 166.412C170.276 155.426 200.919 140.89 198.998 133.944C197.077 126.998 163.319 130.273 123.598 141.258C83.8762 152.244 53.2327 166.78 55.1537 173.726C57.0747 180.672 90.8326 177.397 130.554 166.412Z" fill="#C4CBF5"/>
<path d="M114.878 157.886L114.066 157.019C113.201 156.095 112.462 155.06 111.87 153.941C111.465 153.176 111.13 152.377 110.869 151.552L109.462 147.097L112.763 145.924L116.072 144.695L124.213 142.501L133.381 140.062L138.775 138.889L139.007 139.686C139.788 142.357 140.151 145.133 140.081 147.916L139.891 149.908C139.667 152.264 138.866 154.529 137.561 156.504L137.491 156.608C136.958 157.415 136.339 158.16 135.644 158.832C133.702 160.711 131.233 161.952 128.566 162.392L127.592 162.553C126.762 162.689 125.922 162.748 125.081 162.727C122.324 162.658 119.655 161.74 117.44 160.097L116.941 159.727C116.199 159.177 115.509 158.561 114.878 157.886Z" fill="#DDE2FF" stroke="#C4CBF5" stroke-width="2"/>
</g>
<defs>
<clipPath id="clip0_2_225">
<rect width="230" height="207" fill="white"/>
</clipPath>
</defs>
</svg>
