<svg width="306" height="306" viewBox="0 0 306 306" fill="none" xmlns="http://www.w3.org/2000/svg">
<circle cx="151.635" cy="168.57" r="95.8982" fill="#3E4450"/>
<circle cx="61.747" cy="103.818" r="6.01071" fill="#3E4450"/>
<circle cx="217.206" cy="80.0479" r="11.2018" fill="#3E4450"/>
<circle cx="63.6593" cy="230.316" r="10.6554" fill="#3E4450"/>
<circle cx="254.363" cy="219.933" r="10.6554" fill="#3E4450"/>
<circle cx="233.598" cy="231.956" r="5.19107" fill="#3E4450"/>
<path d="M167.64 87.7185C167.323 87.6511 167.323 87.1989 167.64 87.1316L172.429 86.113C172.545 86.0885 172.635 85.9985 172.66 85.8831L173.692 81.1271C173.76 80.8118 174.21 80.8118 174.278 81.1271L175.309 85.8831C175.334 85.9985 175.425 86.0885 175.54 86.113L180.33 87.1316C180.647 87.1989 180.647 87.6511 180.33 87.7185L175.54 88.737C175.425 88.7616 175.334 88.8515 175.309 88.9669L174.278 93.7229C174.21 94.0382 173.76 94.0382 173.692 93.7229L172.66 88.9669C172.635 88.8515 172.545 88.7616 172.429 88.737L167.64 87.7185Z" fill="#949BAB"/>
<path d="M50.9402 172.461C51.0625 171.883 51.8871 171.883 52.0094 172.461L53.836 181.091C53.8805 181.301 54.0442 181.466 54.2542 181.511L62.7946 183.372C63.3681 183.497 63.3681 184.315 62.7946 184.44L54.2542 186.3C54.0442 186.346 53.8805 186.511 53.836 186.721L52.0094 195.35C51.8871 195.928 51.0625 195.928 50.9402 195.35L49.1136 186.721C49.0691 186.511 48.9054 186.346 48.6953 186.3L40.1549 184.44C39.5814 184.315 39.5814 183.497 40.1549 183.372L48.6953 181.511C48.9054 181.466 49.0691 181.301 49.1136 181.091L50.9402 172.461Z" fill="#949BAB"/>
<path d="M92.0503 58.7747C92.1182 58.4538 92.5763 58.4538 92.6442 58.7747L93.659 63.5687C93.6837 63.6855 93.7746 63.777 93.8913 63.8024L98.6358 64.836C98.9544 64.9054 98.9544 65.3598 98.6358 65.4292L93.8913 66.4627C93.7746 66.4882 93.6837 66.5796 93.659 66.6965L92.6442 71.4904C92.5763 71.8114 92.1182 71.8114 92.0503 71.4904L91.0356 66.6965C91.0108 66.5796 90.9199 66.4882 90.8032 66.4627L86.0588 65.4292C85.7402 65.3598 85.7402 64.9054 86.0588 64.836L90.8032 63.8024C90.9199 63.777 91.0108 63.6855 91.0356 63.5687L92.0503 58.7747Z" fill="#949BAB"/>
<path d="M237.338 106.343C237.461 105.765 238.285 105.765 238.408 106.343L239.473 111.377C239.518 111.588 239.681 111.752 239.891 111.798L244.888 112.887C245.461 113.011 245.461 113.829 244.888 113.954L239.891 115.043C239.681 115.089 239.518 115.253 239.473 115.464L238.408 120.498C238.285 121.076 237.461 121.076 237.338 120.498L236.273 115.464C236.228 115.253 236.065 115.089 235.855 115.043L230.858 113.954C230.285 113.829 230.285 113.011 230.858 112.887L235.855 111.798C236.065 111.752 236.228 111.588 236.273 111.377L237.338 106.343Z" fill="#949BAB"/>
<path d="M259.367 187.056L261.04 194.961L268.833 196.659L261.04 198.356L259.367 206.262L257.694 198.356L249.901 196.659L257.694 194.961L259.367 187.056Z" fill="#C7CDDB"/>
<path d="M125.739 66.3564C132.687 64.4734 139.68 68.3087 141.437 74.7915C143.194 81.2742 139.095 88.1163 132.147 89.9995C125.199 91.8826 118.206 88.0472 116.448 81.5645C114.691 75.0817 118.791 68.2395 125.739 66.3564Z" fill="#949BAB" stroke="#949BAB" stroke-width="2"/>
<path d="M124.74 78.2379L128.826 76.5851L136.446 74.5198C142.241 72.9491 148.323 72.7529 154.207 73.9468C156.393 74.3904 158.537 75.0228 160.614 75.8368L168.331 78.8616L172.936 81.3449C176.427 83.2277 179.681 85.5207 182.628 88.1753C186.019 91.2291 188.974 94.7344 191.41 98.5928L195.816 105.57L204.473 124.198L210.446 137.361L219.891 152.978L227.207 165.178L232.8 173.204C234.51 175.658 237.068 177.391 239.982 178.07C242.178 178.581 244.187 179.696 245.783 181.289L248.545 184.045C248.922 184.421 249.262 184.831 249.561 185.27C251.332 187.87 251.511 191.238 250.028 194.012L249.84 194.363C248.855 196.205 247.266 197.652 245.341 198.462L232.303 203.947L212.538 210.902L177.718 221.201L157.866 226.582L130.001 233.273L105.135 238.415L91.3265 240.277C88.9443 240.598 86.5519 239.763 84.8863 238.03C83.377 236.459 82.6212 234.313 82.8137 232.143L83.0389 229.604C83.2698 227.002 84.5583 224.608 86.6034 222.983C88.6151 221.383 89.8962 219.04 90.1562 216.483L91.416 204.095L91.416 187.8L89.3506 165.388L88.2531 149.506L87.68 142.717C87.3373 138.657 87.3259 134.576 87.6457 130.514L87.7952 128.615C88.1561 124.032 89.0529 119.507 90.467 115.132C91.7341 111.213 93.4091 107.438 95.4647 103.868L96.0591 102.836C98.0484 99.3813 100.403 96.1508 103.083 93.1999C105.842 90.1625 108.928 87.4397 112.286 85.0813L112.706 84.7862C116.455 82.1528 120.492 79.9559 124.74 78.2379Z" fill="#C7CDDB"/>
<path d="M125.199 78.1646L129.285 76.5119L136.904 74.4466C142.7 72.8758 148.782 72.6796 154.666 73.8736C156.852 74.3171 158.996 74.9495 161.073 75.7636L168.79 78.7884L173.395 81.2717C176.886 83.1545 180.14 85.4475 183.087 88.102C186.478 91.1559 189.433 94.6612 191.869 98.5196L196.275 105.497L204.932 124.124L210.905 137.287L220.35 152.905L227.666 165.105L232.636 171.906C234.829 174.906 238.051 176.992 241.685 177.765L242.017 177.836C244.341 178.33 246.498 179.415 248.28 180.987L249.322 181.907C250.733 183.152 251.735 184.796 252.194 186.621C252.654 188.449 252.549 190.372 251.894 192.139L251.848 192.262C251.609 192.906 251.303 193.523 250.934 194.103L250.746 194.4C249.525 196.319 247.823 197.887 245.81 198.947L242.399 200.744L235.915 204.159L217.736 212.356L205.441 217.274L194.786 221.372L185.77 224.377L176.48 227.656L168.557 229.842L163.093 231.208L148.339 234.213L134.405 236.945L108.177 240.714L100.159 241.601C98.5879 241.775 97.0021 241.77 95.4321 241.586L91.3889 241.112C89.1949 240.855 87.1584 239.844 85.6278 238.251C83.9222 236.476 82.9696 234.11 82.9696 231.648L82.9696 230.786C82.9696 230.157 83.0204 229.53 83.1214 228.91L83.1789 228.557C83.625 225.817 84.7725 223.239 86.5097 221.074L87.6749 219.622C91.2397 215.179 93.0424 209.578 92.7385 203.89L91.875 187.727L89.8096 165.315L88.712 149.432L88.139 142.644C87.7963 138.584 87.7848 134.502 88.1047 130.44L88.2542 128.542C88.6151 123.959 89.5118 119.434 90.926 115.059C92.1931 111.14 93.8681 107.364 95.9236 103.795L96.5181 102.763C98.5073 99.3081 100.862 96.0776 103.542 93.1267C106.301 90.0892 109.387 87.3664 112.745 85.008L113.165 84.7129C116.914 82.0796 120.951 79.8826 125.199 78.1646Z" fill="#3E4450" stroke="#949BAB" stroke-width="2"/>
<ellipse cx="166.076" cy="211.835" rx="74.6222" ry="13.0487" transform="rotate(-15.4595 166.076 211.835)" fill="#949BAB"/>
<path d="M153.878 215.886L153.066 215.019C152.201 214.095 151.462 213.06 150.87 211.941C150.465 211.176 150.13 210.377 149.869 209.552L148.462 205.097L151.763 203.924L155.072 202.695L163.213 200.501L172.381 198.062L177.775 196.889L178.007 197.686C178.788 200.357 179.151 203.133 179.081 205.916L178.891 207.908C178.667 210.264 177.866 212.529 176.561 214.504L176.491 214.608C175.958 215.415 175.339 216.16 174.644 216.832C172.702 218.711 170.233 219.952 167.566 220.392L166.592 220.553C165.762 220.689 164.922 220.748 164.081 220.727C161.324 220.658 158.655 219.74 156.44 218.097L155.941 217.727C155.199 217.177 154.509 216.561 153.878 215.886Z" fill="#C7CDDB" stroke="#949BAB" stroke-width="2"/>
</svg>
