<svg width="242" height="211" viewBox="0 0 242 211" fill="none" xmlns="http://www.w3.org/2000/svg">
<g clip-path="url(#clip0_2_242)">
<path d="M124.645 210.46C177.608 210.46 220.543 167.525 220.543 114.562C220.543 61.5989 177.608 18.6638 124.645 18.6638C71.6819 18.6638 28.7468 61.5989 28.7468 114.562C28.7468 167.525 71.6819 210.46 124.645 210.46Z" fill="#3E4450"/>
<path d="M34.7578 55.8214C38.0774 55.8214 40.7685 53.1303 40.7685 49.8107C40.7685 46.4911 38.0774 43.8 34.7578 43.8C31.4382 43.8 28.7471 46.4911 28.7471 49.8107C28.7471 53.1303 31.4382 55.8214 34.7578 55.8214Z" fill="#3E4450"/>
<path d="M78.199 22.4893C84.3856 22.4893 89.4008 17.4741 89.4008 11.2875C89.4008 5.10091 84.3856 0.085701 78.199 0.085701C72.0124 0.085701 66.9972 5.10091 66.9972 11.2875C66.9972 17.4741 72.0124 22.4893 78.199 22.4893Z" fill="#3E4450"/>
<path d="M36.67 186.964C42.5548 186.964 47.3254 182.194 47.3254 176.309C47.3254 170.424 42.5548 165.654 36.67 165.654C30.7852 165.654 26.0146 170.424 26.0146 176.309C26.0146 182.194 30.7852 186.964 36.67 186.964Z" fill="#3E4450"/>
<path d="M227.374 176.582C233.259 176.582 238.029 171.812 238.029 165.927C238.029 160.042 233.259 155.272 227.374 155.272C221.489 155.272 216.719 160.042 216.719 165.927C216.719 171.812 221.489 176.582 227.374 176.582Z" fill="#3E4450"/>
<path d="M206.609 183.139C209.476 183.139 211.8 180.815 211.8 177.948C211.8 175.081 209.476 172.757 206.609 172.757C203.742 172.757 201.418 175.081 201.418 177.948C201.418 180.815 203.742 183.139 206.609 183.139Z" fill="#3E4450"/>
<path d="M122.474 30.4327C122.157 30.3653 122.157 29.9132 122.474 29.8458L127.263 28.8272C127.379 28.8027 127.469 28.7127 127.494 28.5974L128.526 23.8413C128.594 23.5261 129.044 23.5261 129.112 23.8413L130.143 28.5974C130.168 28.7127 130.259 28.8027 130.374 28.8272L135.164 29.8458C135.481 29.9132 135.481 30.3653 135.164 30.4327L130.374 31.4513C130.259 31.4758 130.168 31.5658 130.143 31.6811L129.112 36.4372C129.044 36.7524 128.594 36.7524 128.526 36.4372L127.494 31.6811C127.469 31.5658 127.379 31.4758 127.263 31.4513L122.474 30.4327Z" fill="#C7CDDB"/>
<path d="M11.9294 77.472C12.0517 76.894 12.8763 76.894 12.9986 77.472L14.8252 86.101C14.8697 86.312 15.0334 86.476 15.2435 86.522L23.7839 88.383C24.3574 88.508 24.3574 89.326 23.7839 89.451L15.2435 91.311C15.0334 91.357 14.8697 91.522 14.8252 91.732L12.9986 100.361C12.8763 100.939 12.0517 100.939 11.9294 100.361L10.1028 91.732C10.0583 91.522 9.89461 91.357 9.68461 91.311L1.14421 89.451C0.570706 89.326 0.570706 88.508 1.14421 88.383L9.68461 86.522C9.89461 86.476 10.0583 86.312 10.1028 86.101L11.9294 77.472Z" fill="#C7CDDB"/>
<path d="M210.349 104.793C210.471 104.216 211.296 104.216 211.418 104.793L212.484 109.828C212.528 110.038 212.692 110.203 212.902 110.248L217.899 111.337C218.472 111.462 218.472 112.28 217.899 112.405L212.902 113.493C212.692 113.539 212.528 113.704 212.484 113.914L211.418 118.948C211.296 119.526 210.471 119.526 210.349 118.948L209.284 113.914C209.239 113.704 209.075 113.539 208.865 113.493L203.869 112.405C203.295 112.28 203.295 111.462 203.869 111.337L208.865 110.248C209.075 110.203 209.239 110.038 209.284 109.828L210.349 104.793Z" fill="#C7CDDB"/>
<path d="M232.379 133.048L234.052 140.954L241.845 142.651L234.052 144.349L232.379 152.254L230.706 144.349L222.913 142.651L230.706 140.954L232.379 133.048Z" fill="#1F2229"/>
<path d="M197.319 36.6964L82.842 157.457L95.956 209.095L104.972 165.654L197.319 36.6964Z" fill="#6D7381"/>
<path d="M82.296 156.911L95.683 210.187L104.153 165.927" stroke="#C7CDDB" stroke-width="2.18571"/>
<path d="M95.41 209.095L129.835 176.582" stroke="#C7CDDB" stroke-width="2.18571"/>
<path d="M197.319 36.6964L104.699 165.38L177.374 197.893L197.319 36.6964Z" fill="#3E4450" stroke="#C7CDDB" stroke-width="2.18571"/>
<path d="M197.305 36L26 133.264L82.282 157.307L197.305 36Z" fill="#3E4450" stroke="#C7CDDB" stroke-width="2.18571"/>
<path d="M131.474 177.685L105.086 166.2L95.41 210.461L131.474 177.685Z" fill="#C7CDDB"/>
</g>
<defs>
<clipPath id="clip0_2_242">
<rect width="242" height="211" fill="white"/>
</clipPath>
</defs>
</svg>
