<svg width="306" height="306" viewBox="0 0 306 306" fill="none" xmlns="http://www.w3.org/2000/svg">
<circle cx="157.645" cy="162.562" r="95.8982" fill="#3E4450"/>
<circle cx="67.7578" cy="97.8107" r="6.01071" fill="#3E4450"/>
<circle cx="111.199" cy="59.2875" r="11.2018" fill="#3E4450"/>
<circle cx="69.67" cy="224.309" r="10.6554" fill="#3E4450"/>
<circle cx="260.374" cy="213.927" r="10.6554" fill="#3E4450"/>
<circle cx="239.609" cy="225.948" r="5.19107" fill="#3E4450"/>
<path d="M155.474 78.4327C155.157 78.3653 155.157 77.9132 155.474 77.8458L160.263 76.8272C160.379 76.8027 160.469 76.7127 160.494 76.5974L161.526 71.8413C161.594 71.5261 162.044 71.5261 162.112 71.8413L163.143 76.5974C163.168 76.7127 163.259 76.8027 163.374 76.8272L168.164 77.8458C168.481 77.9132 168.481 78.3653 168.164 78.4327L163.374 79.4513C163.259 79.4758 163.168 79.5658 163.143 79.6811L162.112 84.4372C162.044 84.7524 161.594 84.7524 161.526 84.4372L160.494 79.6811C160.469 79.5658 160.379 79.4758 160.263 79.4513L155.474 78.4327Z" fill="#C7CDDB"/>
<path d="M44.9294 125.472C45.0517 124.894 45.8763 124.894 45.9986 125.472L47.8252 134.101C47.8697 134.312 48.0334 134.476 48.2435 134.522L56.7839 136.383C57.3574 136.508 57.3574 137.326 56.7839 137.451L48.2435 139.311C48.0334 139.357 47.8697 139.522 47.8252 139.732L45.9986 148.361C45.8763 148.939 45.0517 148.939 44.9294 148.361L43.1028 139.732C43.0583 139.522 42.8946 139.357 42.6846 139.311L34.1442 137.451C33.5707 137.326 33.5707 136.508 34.1442 136.383L42.6846 134.522C42.8946 134.476 43.0583 134.312 43.1028 134.101L44.9294 125.472Z" fill="#C7CDDB"/>
<path d="M243.349 152.793C243.471 152.216 244.296 152.216 244.418 152.793L245.484 157.828C245.528 158.038 245.692 158.203 245.902 158.248L250.899 159.337C251.472 159.462 251.472 160.28 250.899 160.405L245.902 161.493C245.692 161.539 245.528 161.704 245.484 161.914L244.418 166.948C244.296 167.526 243.471 167.526 243.349 166.948L242.284 161.914C242.239 161.704 242.075 161.539 241.865 161.493L236.869 160.405C236.295 160.28 236.295 159.462 236.869 159.337L241.865 158.248C242.075 158.203 242.239 158.038 242.284 157.828L243.349 152.793Z" fill="#C7CDDB"/>
<path d="M265.379 181.048L267.052 188.954L274.845 190.651L267.052 192.349L265.379 200.254L263.706 192.349L255.913 190.651L263.706 188.954L265.379 181.048Z" fill="#1F2229"/>
<path d="M230.319 84.6964L115.842 205.457L128.956 257.095L137.972 213.654L230.319 84.6964Z" fill="#6D7381"/>
<path d="M115.296 204.911L128.683 258.187L137.153 213.927" stroke="#C7CDDB" stroke-width="2.18571"/>
<path d="M128.41 257.095L162.835 224.582" stroke="#C7CDDB" stroke-width="2.18571"/>
<path d="M230.319 84.6964L137.699 213.38L210.374 245.893L230.319 84.6964Z" fill="#3E4450" stroke="#C7CDDB" stroke-width="2.18571"/>
<path d="M230.305 84L59 181.264L115.282 205.307L230.305 84Z" fill="#3E4450" stroke="#C7CDDB" stroke-width="2.18571"/>
<path d="M164.474 225.685L138.086 214.2L128.41 258.461L164.474 225.685Z" fill="#C7CDDB"/>
</svg>
