<svg width="113" height="121" viewBox="0 0 113 121" fill="none" xmlns="http://www.w3.org/2000/svg">
<path d="M111.096 64.2762C111.096 94.6803 86.452 119.324 56.0479 119.324C25.6438 119.324 1 94.6803 1 64.2762C1 47.1708 8.78886 31.8936 21.0356 21.8006C21.0607 21.7756 21.0857 21.7756 21.1108 21.7506C30.5526 13.9617 42.6741 9.27836 55.8726 9.22827H56.0479C56.7241 9.22827 57.4003 9.22827 58.0765 9.25332C61.708 9.37854 65.2393 9.85439 68.6454 10.6558C92.9887 16.366 111.096 38.2048 111.096 64.2762Z" fill="#2E333D" stroke="#3B414E" stroke-width="2" stroke-miterlimit="10"/>
<path d="M106.387 41.9865C104.609 42.262 103.858 41.686 102.831 39.4069C102.33 39.8327 101.854 40.2334 101.228 40.7844C100.878 40.008 100.602 39.3568 100.302 38.7057C100.026 38.0545 99.7256 37.9293 99.0995 38.4302C98.6738 38.7808 97.8723 39.1565 97.5217 38.9561C97.121 38.7557 96.9206 37.9543 96.8706 37.3783C96.7954 36.5769 96.8706 36.2262 95.6935 36.2012C94.4162 36.1762 93.1389 35.2745 91.7114 34.6985C91.486 36.1261 91.2606 37.5286 91.0101 38.9561C90.384 39.1064 89.7579 39.2316 89.1318 39.4069C87.1533 39.9328 85.9511 39.5572 84.749 37.8541C83.9476 36.7271 83.2964 35.4749 82.3948 33.9472C84.0477 33.5214 85.4753 33.0706 86.9529 32.8202C88.3053 32.5948 90.91 30.5662 91.2606 29.2388C91.2856 29.1136 91.3107 28.9884 91.3107 28.8882C91.0602 27.5608 90.8098 26.2585 90.5343 24.7809C90.3089 24.7809 89.833 24.856 89.4073 24.7558C88.6059 24.6056 87.9046 24.3301 87.554 23.4285C87.4037 23.0528 86.9028 22.6521 86.5021 22.5519C84.4735 22.0761 84.0227 21.6754 83.8474 19.6968C83.7973 18.9455 83.8223 18.1942 83.8474 17.4428C83.8474 17.2174 83.8724 17.0171 83.8724 16.6915C79.1891 13.9366 74.055 11.8579 68.5953 10.5806C68.1194 11.8829 67.2929 12.6092 65.7903 12.8096C64.9888 12.9098 64.2125 13.7613 63.5863 14.4124C62.3842 15.7148 61.3323 17.1172 60.2053 18.5197C58.5023 17.8185 57.8762 16.416 57.2751 14.8883C56.5238 12.9849 56.7492 11.2067 57.6758 9.47866C57.751 9.35343 57.8762 9.25325 58.0265 9.15308C57.4003 9.22821 56.7241 9.22821 56.0479 9.22821H55.8726C55.9728 9.30334 56.0479 9.37848 56.098 9.47866C56.2483 9.70406 56.1481 10.3051 55.9478 10.5055C54.971 11.382 53.9191 12.1584 52.8923 12.9849C51.4648 11.2568 50.4129 10.9813 48.1589 11.6325C47.658 11.7828 46.8065 11.8829 46.556 11.6074C45.6544 10.6557 45.0033 11.2568 44.302 11.7327C43.4505 12.3087 42.6741 12.9598 41.7725 13.4607C40.4201 14.2121 40.2949 16.7666 40.921 17.7434C41.0963 18.0188 41.7224 18.2443 42.048 18.1441C43.4756 17.7934 44.7528 17.1172 45.5292 15.8149C45.8548 15.2639 46.1553 15.314 46.7814 15.3641C47.5328 15.4142 48.4344 15.0886 49.0605 14.6378C50.438 13.611 50.6383 13.5359 51.8404 14.738C52.0658 14.9634 52.2912 15.2639 52.5667 15.4393C53.4683 15.9402 53.4433 16.5913 52.9674 17.3677C52.6419 17.8936 52.4165 18.4697 52.0909 19.1459C52.6168 19.2711 53.0676 19.3713 53.5685 19.4714C53.4934 20.0475 53.4683 20.6235 53.3181 21.1494C52.7921 23.0278 51.4898 24.5555 49.4111 22.8524C48.7099 22.2764 47.8083 22.4517 47.3825 23.2532C46.7314 24.5304 45.5543 24.6306 44.4523 24.5805C41.9478 24.4553 39.6688 25.1816 37.4899 26.3086C37.2395 26.4338 36.9139 26.6592 36.7135 26.6091C35.1858 26.1082 34.2592 27.2603 33.1322 27.8614C32.0302 28.4624 30.9032 29.0385 29.7512 29.5393C29.0249 29.8649 28.5991 30.1905 28.549 31.1422C28.4238 32.8202 27.998 34.4731 27.6725 36.2513C26.295 35.6502 26.0446 34.4982 25.8943 33.5465C25.5186 31.1422 24.3916 30.7415 22.6635 30.4159C19.4829 29.8148 15.3505 31.7683 14.0232 34.5983C13.4972 35.7254 13.4972 37.203 13.6225 38.4803C13.7226 39.6073 15.1001 40.1833 16.4024 39.7575C17.1788 39.5071 17.9802 39.482 18.1555 40.2835C18.2557 40.8094 17.7298 41.4856 17.3791 42.0616C17.2289 42.3121 16.8532 42.4373 16.6028 42.6376C15.8013 43.2888 15.7512 43.965 16.6028 44.5661C17.2038 44.9918 17.2539 45.3425 17.0786 46.0688C16.3273 49.1242 17.8049 51.5034 20.8603 52.3048C22.0374 52.6054 22.8639 52.0544 23.6152 51.1778C24.1161 50.5768 24.4918 49.7002 25.5186 49.8755C25.7941 49.9256 26.0946 49.9757 26.32 50.1009C27.7726 50.8272 29.1751 51.6787 30.6528 52.3299C32.0052 52.931 33.3325 53.4068 34.2592 54.7091C34.6348 55.2351 35.3862 55.5356 36.0123 55.761C38.6921 56.7878 40.7207 58.566 42.1732 60.9953C43.1249 62.5982 44.0015 64.2511 44.8781 65.904C45.3289 66.7305 45.8798 67.2314 46.8566 67.4568C48.9353 67.9076 50.9138 68.7591 52.4916 70.2618C54.0193 71.7144 54.2197 73.1419 53.0927 74.9451C52.6419 75.6965 51.8905 76.2474 51.3896 76.9737C50.7886 77.8753 50.1124 78.802 49.8118 79.8288C49.0855 82.183 47.8333 84.2367 46.2305 86.0399C45.5292 86.8413 44.3271 87.4424 43.2752 87.6427C41.447 87.9683 40.4452 89.1454 39.5185 90.4978C38.7421 91.6498 37.8155 92.7268 37.2144 93.9539C36.2627 95.8573 34.4094 96.6588 32.8316 97.7607C30.4274 99.4137 28.6993 101.618 27.9229 104.347C27.5723 105.575 28.1984 107.077 28.3737 108.43C28.4989 109.381 28.6742 110.333 28.8245 111.36C25.9694 110.258 24.1662 108.204 22.8138 105.775C22.2879 104.823 22.2378 103.596 21.9873 102.494C21.812 101.693 21.812 100.841 21.5115 100.115C20.685 98.1364 20.9856 96.1328 21.2861 94.1543C21.4614 93.0023 21.4864 91.9253 21.3612 90.7232C21.1609 89.0202 21.6367 87.242 21.8371 85.4889C21.9372 84.6374 22.1376 83.7859 22.2127 82.9343C22.2879 82.1329 21.9873 81.5068 21.5616 80.7805C21.0857 79.929 21.0356 78.7519 21.0857 77.7251C21.1358 77.0739 21.1859 76.7483 20.5848 76.3226C18.3559 74.7698 16.3273 72.7162 15.4507 70.3119C14.3738 67.3065 13.4722 63.9255 15.8514 60.82C16.9534 59.3674 18.0303 57.8147 18.6564 56.1116C19.5079 53.8075 18.9569 52.7556 17.304 51.7789C16.2521 51.1778 15.5759 50.2762 15.4758 49.0491C15.3756 47.7968 14.7996 46.8952 13.8729 46.1188C13.3219 45.668 12.9963 45.2172 13.372 44.4158C13.6976 43.6645 13.3971 43.1135 12.5455 42.7128C10.8676 41.9364 9.06435 41.135 8.66363 39.1064C8.46328 38.1296 8.46328 36.8774 8.93912 36.0509C11.1931 32.0188 14.0482 28.3873 17.304 25.1315C18.3308 24.1047 19.4077 23.1029 20.5097 22.1512C8.5885 32.2942 1 47.3961 1 64.2761C1 94.6802 25.6438 119.324 56.0479 119.324C68.0693 119.324 79.1891 115.467 88.2302 108.931L88.3053 108.279C88.6309 107.503 88.9314 106.727 89.257 105.95C89.8831 104.573 90.4842 103.17 91.1604 101.843C91.7865 100.641 91.6112 99.4137 91.2355 98.2867C90.2838 95.3064 91.486 93.0023 93.3393 90.8985C93.4144 90.8234 93.4895 90.7482 93.5396 90.6481C94.5164 89.5461 95.5933 88.5193 95.5933 86.9415C95.5933 85.6892 95.5182 84.3118 95.0423 83.1848C94.9171 82.8842 94.8169 82.5837 94.7167 82.2832C94.2409 80.505 94.5915 78.8521 95.3679 77.1991C95.3929 77.124 95.443 77.0489 95.4681 76.9737C95.969 75.7966 96.1192 74.5945 95.969 73.3924C95.9439 73.1169 95.8938 72.8414 95.8187 72.5659C95.7436 72.2904 95.2927 71.8396 95.2677 71.8396C93.8151 72.7663 92.8133 71.2636 91.5611 71.1884C89.9082 71.0883 88.2302 70.8128 86.6273 71.0382C84.9243 71.2886 83.3715 70.963 82.1193 70.0364C79.8152 68.3334 77.6614 66.3799 75.5076 64.4765C75.1068 64.1259 74.9065 63.3996 74.8313 62.8486C74.5809 60.2189 75.2571 57.7145 75.9333 55.21C76.3591 53.6573 76.6095 52.1796 76.3841 50.5016C76.1838 48.8487 77.4861 47.6466 78.7633 46.6949C79.2392 46.3442 79.8904 46.194 80.4163 45.8934C80.9673 45.5679 81.6685 45.2924 81.9941 44.7915C83.9726 41.7861 87.0531 41.3854 90.1837 41.4355C92.638 41.4856 95.1675 41.6108 97.4967 42.262C99.1496 42.7128 100.627 43.965 102.03 45.0419C103.232 45.9435 104.384 46.6197 105.962 46.4444C106.688 46.3693 107.439 46.5446 108.166 46.6448C107.665 45.0419 107.064 43.4892 106.387 41.9865ZM23.2396 40.2083C23.5902 38.7808 24.8675 38.1296 25.7941 38.8309C26.9962 39.7325 28.2986 40.1082 29.7762 40.1582C30.1268 40.1833 30.4524 40.4087 30.803 40.559C30.7529 40.7343 30.7279 40.8845 30.6778 41.0598C28.1984 40.7593 25.744 40.4838 23.2396 40.2083ZM33.7583 44.6913C32.1805 44.541 30.7028 44.3908 29.1 44.2405C30.6778 43.0133 32.2306 42.262 34.0588 43.965C33.9586 44.2155 33.8334 44.516 33.7583 44.6913ZM69.2214 16.8167C69.021 17.3176 68.7706 18.1441 68.4199 18.2192C67.7938 18.3444 67.0675 18.0689 66.4414 17.7934C65.8153 17.543 65.2894 17.0922 64.7133 16.7165C64.7634 16.5663 64.8386 16.391 64.8887 16.2407C65.9405 15.84 66.9924 15.3641 68.0693 15.0886C68.47 14.9885 69.0961 15.289 69.4468 15.6146C69.597 15.8149 69.3716 16.441 69.2214 16.8167ZM80.7669 26.1583C80.5415 25.7326 80.3662 25.3319 80.1408 24.9061C81.1676 24.4553 81.6184 23.7541 81.3179 22.627C81.2928 22.5269 82.1193 22.051 82.1945 22.1262C83.7472 23.5787 85.7508 24.5304 86.5522 26.8095C86.9529 27.9365 86.427 28.2871 85.8509 28.7379C84.5987 29.6896 83.1962 29.1637 82.8706 27.661C82.7204 27.0349 82.6452 26.3837 82.52 25.5573C81.8689 25.7576 81.3429 25.9329 80.7669 26.1583Z" fill="#1F2229" stroke="#3B414E" stroke-width="2" stroke-miterlimit="10"/>
<path d="M83.168 0.992676C88.5436 0.992676 92.8912 5.43165 92.8912 10.9204C92.8912 15.2994 86.7224 23.9674 84.1961 27.3266C83.6673 28.0464 82.6098 28.0464 82.0811 27.3266C79.5548 23.9674 73.386 15.2994 73.386 10.9204C73.4447 5.43165 77.7923 0.992676 83.168 0.992676Z" fill="#6D7381" stroke="#949BAB" stroke-width="2" stroke-miterlimit="10" stroke-linejoin="round"/>
<path d="M83.3321 15.2396C85.4865 15.2396 87.2331 13.493 87.2331 11.3385C87.2331 9.18405 85.4865 7.4375 83.3321 7.4375C81.1776 7.4375 79.431 9.18405 79.431 11.3385C79.431 13.493 81.1776 15.2396 83.3321 15.2396Z" fill="#C7CDDB"/>
<path fill-rule="evenodd" clip-rule="evenodd" d="M77.6058 31.0767C77.6335 32.2733 76.6858 33.2658 75.4892 33.2934C75.3564 33.2965 75.2238 33.3001 75.0916 33.3043C73.8953 33.3423 72.8946 32.4033 72.8566 31.207C72.8186 30.0106 73.7576 29.01 74.954 28.972C75.0987 28.9674 75.2438 28.9634 75.3891 28.9601C76.5857 28.9324 77.5782 29.8801 77.6058 31.0767ZM80.7797 31.2497C80.931 30.0624 82.0163 29.2226 83.2036 29.374C83.2761 29.3832 83.3487 29.3926 83.4213 29.4022C84.608 29.5583 85.4435 30.6469 85.2873 31.8336C85.1312 33.0203 84.0426 33.8558 82.8559 33.6996C82.789 33.6908 82.7221 33.6822 82.6554 33.6737C81.4681 33.5223 80.6283 32.437 80.7797 31.2497ZM69.702 31.5574C69.9305 32.7324 69.1632 33.87 67.9883 34.0985C67.8577 34.1239 67.7276 34.1498 67.5977 34.1763C66.4249 34.4154 65.2803 33.6585 65.0412 32.4857C64.8021 31.3129 65.559 30.1683 66.7318 29.9292C66.8745 29.9001 67.0175 29.8716 67.1609 29.8437C68.3359 29.6152 69.4735 30.3825 69.702 31.5574ZM61.9923 33.3719C62.4189 34.4903 61.8581 35.7427 60.7397 36.1692C60.6157 36.2165 60.4921 36.2643 60.3689 36.3126C59.2544 36.7493 57.997 36.1998 57.5604 35.0853C57.1237 33.9709 57.6732 32.7135 58.7876 32.2768C58.9229 32.2238 59.0587 32.1713 59.195 32.1194C60.3133 31.6928 61.5657 32.2536 61.9923 33.3719ZM54.7075 36.4792C55.3166 37.5095 54.9753 38.8386 53.9449 39.4477C53.8312 39.515 53.7179 39.5826 53.6052 39.6506C52.5803 40.2688 51.2482 39.9391 50.6301 38.9142C50.0119 37.8892 50.3416 36.5572 51.3665 35.939C51.4901 35.8645 51.6142 35.7904 51.7389 35.7166C52.7692 35.1075 54.0983 35.4489 54.7075 36.4792ZM48.0459 40.7657C48.8177 41.6805 48.7018 43.0479 47.7869 43.8197C47.6854 43.9053 47.5846 43.9912 47.4843 44.0773C46.5763 44.8571 45.208 44.7532 44.4282 43.8452C43.6483 42.9372 43.7522 41.569 44.6602 40.7891C44.7701 40.6947 44.8807 40.6006 44.992 40.5067C45.9068 39.7349 47.2741 39.8508 48.0459 40.7657ZM42.1897 46.1006C43.1093 46.8667 43.2337 48.2333 42.4676 49.1529C42.3836 49.2538 42.3004 49.3546 42.2181 49.4554C41.4612 50.3826 40.0959 50.5206 39.1687 49.7637C38.2415 49.0067 38.1035 47.6415 38.8605 46.7143C38.9518 46.6024 39.0441 46.4904 39.1374 46.3785C39.9035 45.4589 41.2701 45.3345 42.1897 46.1006ZM37.3856 52.4019C38.4563 52.937 38.8905 54.2387 38.3554 55.3094C38.3274 55.3655 38.2998 55.4213 38.2725 55.477C37.746 56.5519 36.4478 56.9965 35.3729 56.47C34.298 55.9435 33.8534 54.6453 34.3799 53.5704C34.4122 53.5043 34.445 53.4381 34.4782 53.3717C35.0132 52.301 36.315 51.8669 37.3856 52.4019Z" fill="#949BAB"/>
<path d="M34.4201 10.095C42.5433 10.095 49.1129 16.5386 49.1129 24.5062C49.1129 30.8628 39.7912 43.4453 35.9737 48.3216C35.1747 49.3665 33.5767 49.3665 32.7777 48.3216C28.9602 43.4453 19.6384 30.8628 19.6384 24.5062C19.7272 16.5386 26.2968 10.095 34.4201 10.095Z" fill="#6D7381" stroke="#949BAB" stroke-width="2" stroke-miterlimit="10" stroke-linejoin="round"/>
<path d="M34.7857 30.8437C37.8977 30.8437 40.4205 28.2239 40.4205 24.9922C40.4205 21.7605 37.8977 19.1406 34.7857 19.1406C31.6737 19.1406 29.1509 21.7605 29.1509 24.9922C29.1509 28.2239 31.6737 30.8437 34.7857 30.8437Z" fill="#C7CDDB"/>
</svg>
