<svg width="183" height="172" viewBox="0 0 183 172" fill="none" xmlns="http://www.w3.org/2000/svg">
<path d="M122.766 65.223C109.834 65.223 96.67 64.6977 84.3561 61.2677C72.0421 57.8377 61.1805 51.4104 51.2923 43.886C44.8186 38.9883 38.932 35.0948 30.5115 35.6819C22.2913 36.116 14.4298 39.188 8.09304 44.4423C-2.59862 53.8052 -0.991782 71.1096 3.22617 83.3C9.65353 101.64 29.2137 114.371 45.8383 122.668C65.0431 132.262 86.1329 137.84 107.3 141.053C125.84 143.865 149.665 145.905 165.733 133.807C180.488 122.683 184.536 97.2825 180.921 80.1172C180.041 75.0518 177.344 70.4812 173.335 67.2625C162.968 59.6763 147.502 64.7441 135.852 65.0067C131.588 65.0994 127.185 65.1921 122.766 65.223Z" fill="#F1F3FF"/>
<path d="M91.1235 171.104C122.448 171.104 147.842 169.52 147.842 167.566C147.842 165.612 122.448 164.028 91.1235 164.028C59.7988 164.028 34.4052 165.612 34.4052 167.566C34.4052 169.52 59.7988 171.104 91.1235 171.104Z" fill="#F1F3FF"/>
<path d="M56.3601 13.0316C55.8174 10.1694 56.4337 7.20882 58.0737 4.80104C59.7137 2.39325 62.2429 0.735493 65.105 0.192382H65.3831C68.2454 -0.350376 71.206 0.266013 73.6137 1.90597C76.0215 3.54593 77.6793 6.07514 78.2224 8.93729L56.3601 13.0316Z" fill="#F1F3FF"/>
<path d="M31.2676 17.792L103.306 4.10205C106.808 3.43649 110.431 4.18947 113.379 6.19535C116.326 8.20123 118.355 11.2957 119.021 14.798L20.5868 33.5041C19.9212 30.0018 20.6742 26.3785 22.6801 23.4314C24.6859 20.4842 27.7804 18.4547 31.2827 17.7891L31.2676 17.792Z" fill="#C4CBF5" stroke="#F1F3FF" stroke-miterlimit="10"/>
<path d="M15.1694 34.5386L124.434 13.7733" stroke="#F1F3FF" stroke-miterlimit="10"/>
<path d="M164.08 120.443L110.637 157.431C109.189 158.426 107.417 158.834 105.679 158.573C103.941 158.312 102.367 157.402 101.274 156.025L41.8522 80.9823L116.864 29.0845L166.135 111.188C167.034 112.702 167.322 114.503 166.941 116.222C166.559 117.942 165.536 119.451 164.08 120.443Z" fill="#C4CBF5" stroke="#F1F3FF" stroke-miterlimit="10"/>
<path d="M33.1381 86.9771L125.47 23.0897" stroke="#F1F3FF" stroke-miterlimit="10"/>
<path d="M75.6487 66.4098L75.6362 66.4189C74.4257 67.2932 74.1532 68.9834 75.0275 70.1939L123.119 136.776C123.993 137.987 125.684 138.259 126.894 137.385L126.907 137.376C128.117 136.502 128.39 134.812 127.515 133.601L79.4238 67.0185C78.5494 65.808 76.8593 65.5355 75.6487 66.4098Z" fill="#F1F3FF"/>
<path d="M139.274 128.489L139.287 128.48C140.532 127.656 140.872 125.978 140.047 124.733L94.6786 56.2662C93.8537 55.0214 92.176 54.681 90.9312 55.5059L90.9183 55.5144C89.6735 56.3392 89.3331 58.017 90.1579 59.2618L135.527 127.729C136.352 128.973 138.029 129.314 139.274 128.489Z" fill="#F1F3FF"/>
<path d="M106.147 45.3788L106.134 45.3869C104.864 46.1736 104.473 47.8403 105.26 49.1095L148.529 118.922C149.315 120.192 150.982 120.583 152.251 119.796L152.265 119.788C153.534 119.001 153.925 117.335 153.138 116.065L109.869 46.2526C109.083 44.9833 107.416 44.5921 106.147 45.3788Z" fill="#F1F3FF"/>
<path d="M114.038 146.207L114.05 146.198C115.233 145.288 115.455 143.59 114.544 142.406L64.4647 77.3061C63.5542 76.1225 61.8566 75.9011 60.673 76.8116L60.6608 76.821C59.4772 77.7315 59.2558 79.4291 60.1663 80.6127L110.246 145.713C111.156 146.897 112.854 147.118 114.038 146.207Z" fill="#F1F3FF"/>
<path d="M134.693 31.0313C135.53 31.0313 136.208 30.3534 136.208 29.5172C136.208 28.681 135.53 28.0031 134.693 28.0031C133.857 28.0031 133.179 28.681 133.179 29.5172C133.179 30.3534 133.857 31.0313 134.693 31.0313Z" fill="#F1F3FF"/>
<path d="M16.2354 22.5645C17.0716 22.5645 17.7495 21.8866 17.7495 21.0504C17.7495 20.2142 17.0716 19.5363 16.2354 19.5363C15.3991 19.5363 14.7212 20.2142 14.7212 21.0504C14.7212 21.8866 15.3991 22.5645 16.2354 22.5645Z" fill="#F1F3FF"/>
<path d="M137.475 151.096C138.311 151.096 138.989 150.418 138.989 149.582C138.989 148.746 138.311 148.068 137.475 148.068C136.638 148.068 135.96 148.746 135.96 149.582C135.96 150.418 136.638 151.096 137.475 151.096Z" fill="#F1F3FF"/>
<path d="M73.371 35.7746V42.4183" stroke="#F1F3FF" stroke-linecap="round" stroke-linejoin="round"/>
<path d="M70.0337 39.0963H76.6928" stroke="#F1F3FF" stroke-linecap="round" stroke-linejoin="round"/>
<path d="M51.0296 127.612V134.271" stroke="#F1F3FF" stroke-linecap="round" stroke-linejoin="round"/>
<path d="M47.7079 130.933H54.3516" stroke="#F1F3FF" stroke-linecap="round" stroke-linejoin="round"/>
<path d="M144.489 49.1545V55.8136" stroke="#F1F3FF" stroke-linecap="round" stroke-linejoin="round"/>
<path d="M141.167 52.4919H147.826" stroke="#F1F3FF" stroke-linecap="round" stroke-linejoin="round"/>
</svg>
